<svg xmlns="http://www.w3.org/2000/svg" xmlns:xlink="http://www.w3.org/1999/xlink" id="Layer_1" x="0px" y="0px" viewBox="0 0 250 80" style="enable-background:new 0 0 250 80;" xml:space="preserve"><style type="text/css">	.st0{fill:#FFFFFF;}	.st1{fill:#801428;}	.st2{fill:#585F72;}			.st3{clip-path:url(#SVGID_00000170982473228898110060000001562353751915535261_);fill:url(#SVGID_00000104666188168964534620000012083557183738813629_);}	.st4{fill:#801429;}			.st5{clip-path:url(#SVGID_00000000921333104636564500000016329211796344282813_);fill:url(#SVGID_00000083786634875246533120000009308802392674600079_);}			.st6{clip-path:url(#SVGID_00000075876089360698864000000015203278407619888822_);fill:url(#SVGID_00000103981745246009338570000005925494713019606657_);}			.st7{clip-path:url(#SVGID_00000130632596125033524300000005641401323312976264_);fill:url(#SVGID_00000034791923266030518080000018023374164350035642_);}			.st8{clip-path:url(#SVGID_00000156586215616477541900000010804599365872252566_);fill:url(#SVGID_00000063616037752558909750000013875240319671813304_);}</style><g>	<path class="st0" d="M28.6,14.2c-2.7,0-4.9,0.2-6.6,0.7c-1.8,0.5-3.3,1.2-4.5,2.2c-1.9,1.6-3.4,3.6-4.4,5.8c-1,2.3-1.5,4.8-1.5,7.5  c0,2.9,0.5,5.5,1.4,7.7c1,2.2,2.4,4.1,4.3,5.6c1.4,1.1,2.9,1.8,4.5,2.3c1.7,0.5,4,0.7,6.9,0.7h21.8l-0.1,6.1l-21.7,0.1  c-4.2,0-7.5-0.4-9.9-1.1c-2.3-0.7-4.5-1.9-6.6-3.6c-2.5-2.1-4.4-4.5-5.7-7.4c-1.3-2.9-1.9-6.1-1.9-9.6c0-2.7,0.4-5.3,1.1-7.7  c0.7-2.4,1.9-4.6,3.3-6.6c1-1.4,2.2-2.7,3.5-3.8c1.3-1.1,2.8-2.1,4.3-2.9c1.4-0.7,2.9-1.2,4.5-1.5c1.6-0.3,4-0.4,7.1-0.4H43  c0,0-6.3,6-6.6,6H28.6z"></path>	<path class="st0" d="M60.5,14.2H42.5c-0.2,0,6.5-6,6.5-6h44.1l-7,6H67l0,38.6h-6.6L60.5,14.2z"></path>	<path class="st0" d="M107.9,40.9l0-26.7l6.5-6l0,38.5l-7.3,6.1c0,0-7.3,0.1-11.4,0.1c-6.2,0-10.9-0.1-14-1.9  c-3.1-1.8-4.7-4.5-4.7-8.1V18.5h6.6v22.4c0,2.5,0.9,4.3,2.6,5.3c1.7,1,17.4,1,19.1,0C107,45.2,107.9,43.4,107.9,40.9"></path>	<polygon class="st1" points="124.1,71.8 117.6,58.2 103,62 124.1,43.7  "></polygon>	<path class="st2" d="M9.6,65.1H6.9v3.4c0,0.3,0.1,0.5,0.2,0.7c0.1,0.1,0.4,0.2,0.8,0.2c0.5,0,0.7-0.1,0.8-0.3  c0.1-0.2,0.1-0.4,0.1-0.7V68h1c0,0.6-0.1,1.1-0.3,1.4C9.3,69.8,8.8,70,7.9,70c-0.8,0-1.3-0.1-1.6-0.3C6,69.5,5.9,69,5.9,68.5v-3.4  H5v-0.7h0.9V63h1.1v1.3h2.7V65.1z"></path>	<path class="st2" d="M12,64.4l0,0.6c0.2-0.3,0.5-0.5,0.8-0.6c0.3-0.1,0.7-0.2,1.1-0.2c0.7,0,1.2,0.1,1.5,0.4  c0.3,0.3,0.5,0.7,0.5,1.2v0.2c0,0.1,0,0.1,0,0.2h-1c0-0.1,0-0.1,0-0.2v-0.2c0-0.3-0.1-0.6-0.3-0.7c-0.2-0.1-0.5-0.2-0.9-0.2  c-0.5,0-0.9,0.1-1.2,0.3c-0.3,0.2-0.4,0.5-0.4,1v0.3v3.4h-1v-5.5H12z"></path>	<path class="st2" d="M16.7,66c0-0.8,0.3-1.2,0.8-1.4c0.5-0.2,1.2-0.2,2-0.2c1,0,1.7,0.1,2.2,0.3c0.5,0.2,0.8,0.8,0.8,1.6v3.6h-1  l0-0.6c-0.3,0.3-0.6,0.5-1,0.6C20.1,70,19.6,70,19.2,70c-0.9,0-1.5-0.1-2-0.3c-0.5-0.2-0.7-0.7-0.7-1.4c0-0.7,0.3-1.2,0.8-1.4  c0.5-0.2,1.2-0.3,1.9-0.3c0.1,0,0.2,0,0.3,0c0.1,0,0.2,0,0.4,0c0.2,0,0.4,0,0.5,0.1c0.2,0,0.3,0.1,0.5,0.1c0.1,0,0.2,0.1,0.3,0.1  c0.1,0.1,0.1,0.1,0.2,0.2v-0.7c0-0.7-0.1-1.1-0.4-1.3c-0.2-0.2-0.8-0.2-1.6-0.2c-0.1,0-0.2,0-0.3,0c-0.1,0-0.2,0-0.3,0  c-0.1,0-0.3,0-0.4,0.1c-0.1,0-0.2,0.1-0.3,0.1c-0.1,0.1-0.2,0.1-0.2,0.2c0,0.1-0.1,0.2-0.1,0.3c0,0,0,0,0,0.1v0.1v0.1  c0,0,0,0.1,0,0.1H16.7z M17.9,69.1c0.2,0.2,0.7,0.2,1.2,0.2h0.3c0.1,0,0.2,0,0.3,0c0.4,0,0.8-0.1,1.1-0.2c0.3-0.1,0.5-0.4,0.5-0.8  c0-0.5-0.2-0.8-0.6-0.9c-0.4-0.1-0.8-0.2-1.4-0.2h-0.3H19c-0.1,0-0.2,0-0.3,0c-0.2,0-0.3,0-0.5,0.1c-0.2,0-0.3,0.1-0.4,0.2  c-0.1,0-0.1,0.1-0.2,0.2c0,0.1-0.1,0.2-0.1,0.2c0,0,0,0.1,0,0.1v0.1C17.5,68.7,17.6,69,17.9,69.1"></path>	<path class="st2" d="M25.7,62.9h-1.1V62h1.1V62.9z M25.7,69.9h-1.1v-5.5h1.1V69.9z"></path>	<path class="st2" d="M28.8,64.4v0.7c0.3-0.3,0.6-0.6,1-0.7c0.4-0.1,0.9-0.2,1.3-0.2c0.9,0,1.6,0.1,2,0.4c0.4,0.3,0.6,0.8,0.6,1.6  v3.7h-1.1v-3.6c0-0.6-0.1-0.9-0.3-1.1C32.1,65.1,31.7,65,31,65c-0.7,0-1.2,0.1-1.5,0.4c-0.4,0.2-0.5,0.6-0.5,1.2v3.4h-1v-5.5H28.8z  "></path>	<path class="st2" d="M36.7,62.9h-1.1V62h1.1V62.9z M36.7,69.9h-1.1v-5.5h1.1V69.9z"></path>	<path class="st2" d="M39.8,64.4v0.7c0.3-0.3,0.6-0.6,1-0.7c0.4-0.1,0.9-0.2,1.3-0.2c0.9,0,1.6,0.1,2,0.4c0.4,0.3,0.6,0.8,0.6,1.6  v3.7h-1.1v-3.6c0-0.6-0.1-0.9-0.3-1.1c-0.2-0.2-0.7-0.3-1.4-0.3c-0.7,0-1.2,0.1-1.5,0.4c-0.4,0.2-0.5,0.6-0.5,1.2v3.4h-1v-5.5H39.8  z"></path>	<path class="st2" d="M52.5,70.3c0,0.9-0.3,1.4-0.8,1.7c-0.5,0.3-1.3,0.4-2.3,0.4c-0.9,0-1.6-0.1-2-0.3c-0.5-0.2-0.7-0.7-0.7-1.5  l1,0c0,0.5,0.2,0.8,0.4,0.9c0.2,0.1,0.6,0.2,1.2,0.2c0.7,0,1.2-0.1,1.6-0.2c0.4-0.1,0.6-0.5,0.6-1.2v-1.1c-0.2,0.3-0.5,0.5-0.8,0.6  C50.3,69.9,50,70,49.6,70c-0.1,0-0.1,0-0.2,0h-0.2c-1.1,0-1.8-0.2-2.2-0.7c-0.3-0.5-0.5-1.1-0.5-1.9c0-0.9,0.1-1.6,0.4-2.2  c0.3-0.6,1.1-0.9,2.4-0.9c0.5,0,0.9,0.1,1.3,0.1c0.4,0.1,0.7,0.3,1,0.6l0-0.7h1V70.3z M47.6,67.4c0,0.6,0.1,1.1,0.3,1.5  c0.2,0.3,0.7,0.5,1.6,0.5c0.5,0,1-0.1,1.3-0.3c0.3-0.2,0.5-0.5,0.6-1c0-0.2,0-0.3,0-0.5c0-0.2,0-0.3,0-0.5c0-0.6-0.1-1.2-0.3-1.6  C51,65.2,50.5,65,49.5,65c-0.8,0-1.3,0.1-1.5,0.4c-0.2,0.2-0.4,0.7-0.4,1.3v0.5V67.4z"></path>	<path class="st2" d="M62.2,65.8c0-0.3-0.1-0.5-0.2-0.6c-0.1-0.1-0.4-0.2-0.8-0.2c-0.2,0-0.4,0-0.6,0h-0.6h-0.2c-0.1,0-0.2,0-0.2,0  c-0.1,0-0.3,0-0.4,0c-0.1,0-0.3,0.1-0.4,0.1c-0.1,0.1-0.1,0.1-0.2,0.2c0,0.1,0,0.2-0.1,0.2v0.1v0.1c0,0.3,0.1,0.6,0.2,0.7  c0.1,0.1,0.4,0.2,0.8,0.2c0.1,0,0.3,0,0.4,0h0.4c0.8,0,1.5,0.1,2.1,0.2c0.6,0.1,0.9,0.6,0.9,1.4c0,0.8-0.3,1.3-0.8,1.5  c-0.5,0.2-1.2,0.2-2.1,0.2h-0.1h-0.1c-0.7,0-1.3-0.1-1.9-0.2c-0.6-0.2-0.9-0.6-0.9-1.3v-0.1c0,0,0-0.1,0-0.1c0,0,0,0,0-0.1  c0,0,0-0.1,0-0.1h1c0,0.5,0.1,0.8,0.4,1c0.2,0.1,0.7,0.2,1.3,0.2h0.3c0.1,0,0.2,0,0.3,0c0.1,0,0.2,0,0.4,0c0.2,0,0.3,0,0.5-0.1  c0.2,0,0.3-0.1,0.4-0.1c0.1-0.1,0.2-0.1,0.2-0.2c0-0.1,0.1-0.2,0.1-0.3c0,0,0-0.1,0-0.1v-0.1c0-0.4-0.1-0.7-0.4-0.8  c-0.3-0.1-0.6-0.1-1-0.1h0h0c-0.1,0-0.1,0-0.2,0h-0.2c-0.1,0-0.1,0-0.1,0c0,0-0.1,0-0.1,0c-0.7,0-1.3-0.1-1.8-0.2  c-0.5-0.1-0.8-0.6-0.8-1.3c0-0.1,0-0.1,0-0.2c0-0.1,0-0.2,0-0.2c0-0.2,0.1-0.3,0.1-0.5c0.1-0.1,0.2-0.3,0.3-0.4  c0.2-0.1,0.4-0.2,0.6-0.2c0.2-0.1,0.5-0.1,0.7-0.1c0.2,0,0.3,0,0.5,0c0.2,0,0.3,0,0.5,0h0.4c0.1,0,0.3,0,0.4,0c0.5,0,1,0.1,1.5,0.3  c0.4,0.2,0.7,0.5,0.7,1v0.1v0.1c0,0,0,0,0,0v0H62.2z"></path>	<path class="st2" d="M64.9,64.9c0.4-0.4,1.2-0.7,2.4-0.7c1.3,0,2.2,0.2,2.6,0.6c0.4,0.4,0.6,1.1,0.6,2.1c0,0.9-0.1,1.6-0.4,2.2  c-0.2,0.6-1.1,0.8-2.5,0.8c-1.2,0-2.1-0.2-2.6-0.5c-0.5-0.3-0.7-1-0.7-2V67C64.4,66.1,64.6,65.4,64.9,64.9 M65.5,67.5v0.3  c0,0.1,0,0.2,0,0.3c0,0.2,0.1,0.4,0.1,0.7c0.1,0.2,0.2,0.4,0.3,0.5c0.1,0.1,0.2,0.1,0.4,0.2c0.2,0,0.3,0.1,0.5,0.1h0.1H67h0.5  c0.6,0,1.1-0.1,1.4-0.2c0.3-0.1,0.5-0.5,0.5-1c0-0.1,0-0.2,0-0.3c0-0.1,0-0.2,0-0.3c0-0.1,0-0.2,0-0.3v-0.3c0-0.7-0.1-1.2-0.2-1.5  c-0.2-0.3-0.7-0.4-1.5-0.4h-0.2c-0.9,0-1.5,0.1-1.7,0.3c-0.2,0.2-0.3,0.7-0.3,1.5V67V67.5z"></path>	<rect x="72.4" y="62" class="st2" width="1.1" height="7.9"></rect>	<path class="st2" d="M81.2,69.9h-1v-0.7c-0.3,0.4-0.6,0.6-1,0.7C78.8,70,78.3,70,77.8,70c-0.8,0-1.4-0.2-1.8-0.5  c-0.4-0.3-0.6-0.8-0.6-1.5v-3.7h1.1v3.7c0,0.5,0.1,0.8,0.3,1c0.2,0.2,0.6,0.3,1.3,0.3c0.8,0,1.4-0.1,1.6-0.4  c0.3-0.2,0.4-0.7,0.4-1.3v-3.3h1.1V69.9z"></path>	<path class="st2" d="M87.4,65.1h-2.7v3.4c0,0.3,0.1,0.5,0.2,0.7c0.1,0.1,0.4,0.2,0.8,0.2c0.5,0,0.7-0.1,0.8-0.3  c0.1-0.2,0.1-0.4,0.1-0.7V68h1c0,0.6-0.1,1.1-0.3,1.4c-0.2,0.4-0.8,0.6-1.6,0.6c-0.8,0-1.3-0.1-1.6-0.3c-0.3-0.2-0.4-0.6-0.4-1.2  v-3.4h-0.9v-0.7h0.9V63h1.1v1.3h2.7V65.1z"></path>	<path class="st2" d="M90.9,62.9h-1.1V62h1.1V62.9z M90.9,69.9h-1.1v-5.5h1.1V69.9z"></path>	<path class="st2" d="M93.4,64.9c0.4-0.4,1.2-0.7,2.4-0.7c1.3,0,2.2,0.2,2.6,0.6c0.4,0.4,0.6,1.1,0.6,2.1c0,0.9-0.1,1.6-0.4,2.2  c-0.2,0.6-1.1,0.8-2.5,0.8c-1.2,0-2.1-0.2-2.6-0.5c-0.5-0.3-0.7-1-0.7-2V67C92.9,66.1,93,65.4,93.4,64.9 M93.9,67.5v0.3  c0,0.1,0,0.2,0,0.3c0,0.2,0.1,0.4,0.1,0.7c0.1,0.2,0.2,0.4,0.3,0.5c0.1,0.1,0.2,0.1,0.4,0.2c0.2,0,0.3,0.1,0.5,0.1h0.1h0.1h0.5  c0.6,0,1.1-0.1,1.4-0.2c0.3-0.1,0.5-0.5,0.5-1c0-0.1,0-0.2,0-0.3c0-0.1,0-0.2,0-0.3c0-0.1,0-0.2,0-0.3v-0.3c0-0.7-0.1-1.2-0.2-1.5  C97.5,65.1,97,65,96.2,65h-0.2c-0.9,0-1.5,0.1-1.7,0.3c-0.2,0.2-0.3,0.7-0.3,1.5V67V67.5z"></path>	<path class="st2" d="M101.4,64.4v0.7c0.3-0.3,0.6-0.6,1-0.7c0.4-0.1,0.9-0.2,1.3-0.2c0.9,0,1.6,0.1,2,0.4c0.4,0.3,0.6,0.8,0.6,1.6  v3.7h-1.1v-3.6c0-0.6-0.1-0.9-0.3-1.1c-0.2-0.2-0.7-0.3-1.4-0.3c-0.7,0-1.2,0.1-1.5,0.4c-0.4,0.2-0.5,0.6-0.5,1.2v3.4h-1v-5.5  H101.4z"></path>	<path class="st2" d="M112.3,65.8c0-0.3-0.1-0.5-0.2-0.6c-0.1-0.1-0.4-0.2-0.8-0.2c-0.2,0-0.4,0-0.6,0h-0.6H110c-0.1,0-0.2,0-0.2,0  c-0.1,0-0.3,0-0.4,0c-0.1,0-0.3,0.1-0.4,0.1c-0.1,0.1-0.1,0.1-0.2,0.2c0,0.1,0,0.2-0.1,0.2v0.1v0.1c0,0.3,0.1,0.6,0.2,0.7  c0.1,0.1,0.4,0.2,0.8,0.2c0.1,0,0.3,0,0.4,0h0.4c0.8,0,1.5,0.1,2.1,0.2c0.6,0.1,0.9,0.6,0.9,1.4c0,0.8-0.3,1.3-0.8,1.5  c-0.5,0.2-1.2,0.2-2.1,0.2h-0.1h-0.1c-0.7,0-1.3-0.1-1.9-0.2c-0.6-0.2-0.9-0.6-0.9-1.3v-0.1c0,0,0-0.1,0-0.1c0,0,0,0,0-0.1  c0,0,0-0.1,0-0.1h1c0,0.5,0.1,0.8,0.4,1c0.2,0.1,0.7,0.2,1.3,0.2h0.3c0.1,0,0.2,0,0.3,0c0.1,0,0.2,0,0.4,0c0.2,0,0.3,0,0.5-0.1  c0.2,0,0.3-0.1,0.4-0.1c0.1-0.1,0.2-0.1,0.2-0.2c0-0.1,0.1-0.2,0.1-0.3c0,0,0-0.1,0-0.1v-0.1c0-0.4-0.1-0.7-0.4-0.8  c-0.3-0.1-0.6-0.1-1-0.1h0h0c-0.1,0-0.1,0-0.2,0h-0.2c-0.1,0-0.1,0-0.1,0c0,0-0.1,0-0.1,0c-0.7,0-1.3-0.1-1.8-0.2  c-0.5-0.1-0.8-0.6-0.8-1.3c0-0.1,0-0.1,0-0.2c0-0.1,0-0.2,0-0.2c0-0.2,0.1-0.3,0.1-0.5c0.1-0.1,0.2-0.3,0.3-0.4  c0.2-0.1,0.4-0.2,0.6-0.2c0.2-0.1,0.5-0.1,0.7-0.1c0.2,0,0.3,0,0.5,0c0.2,0,0.3,0,0.5,0h0.4c0.1,0,0.3,0,0.4,0c0.5,0,1,0.1,1.5,0.3  c0.4,0.2,0.7,0.5,0.7,1v0.1v0.1c0,0,0,0,0,0v0H112.3z"></path>	<g>		<defs>			<polygon id="SVGID_1_" points="103,62 103,62 117.6,58.2 124.1,43.7    "></polygon>		</defs>		<clipPath id="SVGID_00000044879199699800357860000001067696052357717177_">			<use xlink:href="#SVGID_1_" style="overflow:visible;"></use>		</clipPath>					<linearGradient id="SVGID_00000016768154059219631790000012224893192981471394_" gradientUnits="userSpaceOnUse" x1="-830.0158" y1="669.2173" x2="-829.6901" y2="669.2173" gradientTransform="matrix(54.0412 27.5389 -27.5389 54.0412 63387.8125 -13260.0166)">			<stop offset="0" style="stop-color:#AD7A74"></stop>			<stop offset="0.233" style="stop-color:#AC7772"></stop>			<stop offset="0.4243" style="stop-color:#A76D6A"></stop>			<stop offset="0.6009" style="stop-color:#9F5B5E"></stop>			<stop offset="0.7686" style="stop-color:#95434C"></stop>			<stop offset="0.9285" style="stop-color:#872435"></stop>			<stop offset="1" style="stop-color:#801429"></stop>		</linearGradient>					<polygon style="clip-path:url(#SVGID_00000044879199699800357860000001067696052357717177_);fill:url(#SVGID_00000016768154059219631790000012224893192981471394_);" points="   95.6,58.2 119.7,70.5 131.5,47.5 107.4,35.2   "></polygon>	</g>	<path class="st4" d="M146.7,14.4h9.4c0.5,0,1,0,1.4,0.1c0.4,0.1,0.8,0.2,1,0.4c0.3,0.2,0.5,0.5,0.6,0.9c0.1,0.4,0.2,0.9,0.2,1.6  c0,0.6,0,1.2-0.1,1.7c-0.1,0.5-0.2,0.9-0.4,1.2c-0.2,0.3-0.6,0.6-1.1,0.7c-0.5,0.2-1.1,0.2-2,0.2h-7.6v4.5h-1.5V14.4z M157.8,17.3  c0-0.3,0-0.6-0.1-0.8c-0.1-0.2-0.2-0.4-0.4-0.5c-0.2-0.1-0.4-0.2-0.7-0.3c-0.3,0-0.6-0.1-0.9-0.1h-7.5V20h7.6  c0.6,0,1.1-0.1,1.4-0.4c0.3-0.2,0.5-0.7,0.5-1.3V17.3z"></path>	<path class="st4" d="M161.4,17.8h1.3v1.2h0c0.1-0.3,0.3-0.5,0.5-0.6c0.2-0.2,0.4-0.3,0.6-0.4c0.2-0.1,0.5-0.2,0.7-0.2  c0.2,0,0.5-0.1,0.7-0.1h1.3c0.6,0,1.2,0.1,1.6,0.2c0.4,0.1,0.8,0.3,1,0.5c0.3,0.2,0.5,0.5,0.6,0.9c0.1,0.4,0.2,0.8,0.2,1.3v1h-1.3  V21c0-0.5,0-0.9-0.1-1.2c-0.1-0.3-0.2-0.5-0.4-0.7s-0.5-0.3-0.9-0.3c-0.4-0.1-0.9-0.1-1.5-0.1h-0.8c-0.4,0-0.7,0.1-0.9,0.2  c-0.3,0.1-0.5,0.2-0.7,0.4c-0.2,0.2-0.3,0.4-0.4,0.6c-0.1,0.2-0.1,0.5-0.1,0.7v5.1h-1.4V17.8z"></path>	<path class="st4" d="M171.6,14.4h1.4v1.5h-1.4V14.4z M171.6,17.8h1.4v8h-1.4V17.8z"></path>	<polygon class="st4" points="174.5,17.8 176,17.8 179.9,24.7 183.8,17.8 185.2,17.8 180.7,25.8 179.1,25.8  "></polygon>	<path class="st4" d="M194.9,25L194.9,25c-0.1,0.2-0.2,0.3-0.3,0.4c-0.1,0.1-0.3,0.2-0.5,0.3c-0.2,0.1-0.5,0.1-0.8,0.1  c-0.3,0-0.8,0-1.3,0h-3.2c-0.5,0-0.9-0.1-1.3-0.2c-0.3-0.1-0.6-0.3-0.8-0.5c-0.2-0.2-0.3-0.5-0.4-0.8c-0.1-0.3-0.1-0.6-0.1-1V23  c0-0.5,0.1-0.8,0.2-1.1c0.2-0.3,0.4-0.5,0.7-0.6c0.3-0.1,0.7-0.2,1.2-0.3c0.5,0,1-0.1,1.6-0.1h2.2c0.4,0,0.8,0,1.1,0  c0.3,0,0.6,0.1,0.8,0.1c0.2,0.1,0.4,0.2,0.6,0.3c0.1,0.1,0.3,0.3,0.4,0.5h0v-1.5c0-0.4-0.1-0.6-0.2-0.9c-0.1-0.2-0.3-0.4-0.5-0.5  c-0.2-0.1-0.6-0.2-0.9-0.2c-0.4,0-0.8-0.1-1.3-0.1h-2c-0.4,0-0.8,0-1,0.1c-0.3,0-0.5,0.1-0.6,0.2c-0.1,0.1-0.2,0.2-0.3,0.3  c-0.1,0.1-0.1,0.3-0.1,0.4v0.3h-1.4v-0.4c0-0.4,0.1-0.7,0.2-0.9c0.1-0.3,0.3-0.5,0.6-0.6c0.3-0.2,0.6-0.3,1-0.4  c0.4-0.1,0.9-0.1,1.6-0.1h2.1c0.6,0,1.2,0,1.7,0.1c0.5,0.1,1,0.2,1.3,0.4c0.4,0.2,0.7,0.5,0.9,0.8c0.2,0.4,0.3,0.8,0.3,1.4v5.4  h-1.4V25z M194.9,23.3c0-0.3-0.1-0.5-0.2-0.7c-0.1-0.2-0.3-0.3-0.6-0.4c-0.3-0.1-0.6-0.1-1-0.2c-0.4,0-0.8,0-1.3,0h-2.1  c-0.4,0-0.8,0-1.1,0.1c-0.3,0-0.5,0.1-0.7,0.2c-0.2,0.1-0.3,0.2-0.4,0.4c-0.1,0.2-0.1,0.4-0.1,0.6v0.3c0,0.2,0,0.4,0.1,0.6  c0.1,0.2,0.2,0.3,0.3,0.4c0.2,0.1,0.4,0.2,0.7,0.2c0.3,0,0.7,0.1,1.1,0.1h1.8c0.6,0,1.1,0,1.6,0c0.4,0,0.8-0.1,1.1-0.2  c0.3-0.1,0.5-0.2,0.6-0.4c0.1-0.2,0.2-0.4,0.2-0.6V23.3z"></path>	<path class="st4" d="M199.4,18.9h-1.8v-1.1h1.8v-1.9h1.4v1.9h5.4v1.1h-5.4v4c0,0.4,0,0.7,0.1,0.9c0.1,0.2,0.2,0.4,0.3,0.6  c0.2,0.2,0.4,0.3,0.6,0.3c0.3,0.1,0.6,0.1,0.9,0.1h0.4c0.5,0,0.8,0,1.1-0.1c0.3-0.1,0.5-0.2,0.6-0.3c0.1-0.2,0.2-0.4,0.3-0.6  c0-0.3,0.1-0.6,0.1-1v-0.6h1.1V23c0,0.4,0,0.8-0.1,1.1c0,0.4-0.2,0.7-0.4,0.9c-0.2,0.3-0.5,0.5-0.9,0.6c-0.4,0.1-1,0.2-1.7,0.2  h-0.7c-0.6,0-1.2-0.1-1.6-0.2c-0.4-0.1-0.7-0.3-1-0.6c-0.2-0.2-0.4-0.5-0.5-0.8c-0.1-0.3-0.1-0.6-0.1-0.9V18.9z"></path>	<path class="st4" d="M207.6,20.9c0-0.7,0.1-1.3,0.3-1.7c0.2-0.4,0.5-0.8,0.9-1c0.4-0.2,0.8-0.4,1.3-0.4c0.5-0.1,0.9-0.1,1.4-0.1  h2.2c0.6,0,1.2,0,1.7,0.1c0.5,0.1,0.9,0.3,1.3,0.5c0.4,0.3,0.7,0.6,0.9,1.1c0.2,0.5,0.3,1,0.3,1.7V22H209v0.5  c0,0.5,0.1,0.8,0.2,1.1c0.1,0.3,0.3,0.5,0.6,0.7c0.3,0.2,0.6,0.3,1,0.4c0.4,0.1,0.9,0.1,1.5,0.1h1.9c0.4,0,0.8,0,1.1-0.1  c0.3,0,0.6-0.1,0.8-0.2c0.2-0.1,0.3-0.3,0.4-0.4c0.1-0.2,0.2-0.4,0.2-0.7h1.4v0.2c0,0.5-0.1,0.8-0.3,1.2c-0.2,0.3-0.5,0.5-0.8,0.7  c-0.4,0.2-0.8,0.3-1.3,0.4c-0.5,0.1-1.1,0.1-1.7,0.1h-2.5c-0.4,0-0.9,0-1.3-0.1c-0.5-0.1-0.9-0.2-1.2-0.4c-0.4-0.2-0.7-0.6-0.9-1  c-0.2-0.4-0.3-1-0.3-1.8V20.9z M216.6,20.4c0-0.2,0-0.4-0.1-0.6c-0.1-0.2-0.2-0.4-0.4-0.5c-0.2-0.2-0.5-0.3-0.9-0.4  c-0.4-0.1-0.8-0.1-1.4-0.1h-2c-0.5,0-1,0-1.3,0.1c-0.3,0.1-0.6,0.2-0.8,0.3c-0.2,0.2-0.4,0.4-0.4,0.7c-0.1,0.3-0.1,0.7-0.2,1.1h7.6  V20.4z"></path>	<polygon class="st4" points="152.5,34.4 146.7,34.4 146.7,33.2 159.8,33.2 159.8,34.4 154,34.4 154,44.6 152.5,44.6  "></polygon>	<path class="st4" d="M159.2,39.7c0-0.7,0.1-1.3,0.3-1.7c0.2-0.4,0.5-0.8,0.9-1c0.4-0.2,0.8-0.4,1.3-0.4c0.5-0.1,0.9-0.1,1.4-0.1  h2.2c0.6,0,1.2,0,1.7,0.1c0.5,0.1,0.9,0.3,1.3,0.5c0.4,0.3,0.7,0.6,0.9,1.1c0.2,0.5,0.3,1,0.3,1.7v0.9h-8.9v0.5  c0,0.5,0.1,0.8,0.2,1.1c0.1,0.3,0.3,0.5,0.6,0.7c0.3,0.2,0.6,0.3,1,0.4c0.4,0.1,0.9,0.1,1.5,0.1h1.9c0.4,0,0.8,0,1.1-0.1  c0.3,0,0.6-0.1,0.8-0.2c0.2-0.1,0.3-0.3,0.4-0.4c0.1-0.2,0.2-0.4,0.2-0.7h1.4v0.2c0,0.5-0.1,0.8-0.3,1.2c-0.2,0.3-0.5,0.5-0.8,0.7  c-0.4,0.2-0.8,0.3-1.3,0.4c-0.5,0.1-1.1,0.1-1.7,0.1H163c-0.4,0-0.9,0-1.3-0.1c-0.5-0.1-0.9-0.2-1.2-0.4c-0.4-0.2-0.7-0.6-0.9-1  c-0.2-0.4-0.3-1-0.3-1.8V39.7z M168.2,39.2c0-0.2,0-0.4-0.1-0.6c-0.1-0.2-0.2-0.4-0.4-0.5c-0.2-0.2-0.5-0.3-0.9-0.4  c-0.4-0.1-0.8-0.1-1.4-0.1h-2c-0.5,0-1,0-1.3,0.1c-0.3,0.1-0.6,0.2-0.8,0.3c-0.2,0.2-0.4,0.4-0.4,0.7c-0.1,0.3-0.1,0.7-0.2,1.1h7.6  V39.2z"></path>	<path class="st4" d="M171.8,36.5h1.3v1.2h0c0.1-0.3,0.3-0.5,0.5-0.6c0.2-0.2,0.4-0.3,0.6-0.4c0.2-0.1,0.4-0.2,0.7-0.2  c0.2,0,0.5-0.1,0.7-0.1h1.3c0.6,0,1.2,0.1,1.6,0.2c0.4,0.1,0.8,0.3,1,0.5c0.3,0.2,0.5,0.5,0.6,0.9c0.1,0.4,0.2,0.8,0.2,1.3v1h-1.3  v-0.3c0-0.5,0-0.9-0.1-1.2c-0.1-0.3-0.2-0.5-0.4-0.7c-0.2-0.2-0.5-0.3-0.9-0.3c-0.4-0.1-0.9-0.1-1.5-0.1h-0.8  c-0.4,0-0.7,0.1-0.9,0.2c-0.3,0.1-0.5,0.2-0.7,0.4c-0.2,0.2-0.3,0.4-0.4,0.6c-0.1,0.2-0.1,0.5-0.1,0.7v5.1h-1.4V36.5z"></path>	<path class="st4" d="M182.5,37.7h-1.8v-1.1h1.8v-1.9h1.4v1.9h5.4v1.1h-5.4v4c0,0.4,0,0.7,0.1,0.9c0.1,0.2,0.2,0.4,0.3,0.6  c0.2,0.2,0.4,0.3,0.6,0.3c0.3,0.1,0.6,0.1,0.9,0.1h0.4c0.5,0,0.8,0,1.1-0.1c0.3-0.1,0.5-0.2,0.6-0.3c0.1-0.2,0.2-0.4,0.3-0.6  c0-0.3,0.1-0.6,0.1-1v-0.6h1.1v0.9c0,0.4,0,0.8-0.1,1.1c0,0.4-0.2,0.7-0.4,0.9c-0.2,0.3-0.5,0.5-0.9,0.6c-0.4,0.1-1,0.2-1.7,0.2  h-0.7c-0.6,0-1.1-0.1-1.6-0.2c-0.4-0.1-0.7-0.3-1-0.6c-0.2-0.2-0.4-0.5-0.5-0.8c-0.1-0.3-0.1-0.6-0.1-0.9V37.7z"></path>	<path class="st4" d="M191.3,33.2h1.4v1.5h-1.4V33.2z M191.3,36.5h1.4v8h-1.4V36.5z"></path>	<path class="st4" d="M203.7,43.8L203.7,43.8c-0.1,0.2-0.2,0.3-0.3,0.4c-0.1,0.1-0.3,0.2-0.5,0.3c-0.2,0.1-0.5,0.1-0.8,0.1  c-0.3,0-0.8,0-1.3,0h-3.2c-0.5,0-0.9-0.1-1.3-0.2c-0.3-0.1-0.6-0.3-0.8-0.5c-0.2-0.2-0.3-0.5-0.4-0.8c-0.1-0.3-0.1-0.6-0.1-1v-0.5  c0-0.5,0.1-0.8,0.2-1.1c0.2-0.3,0.4-0.5,0.7-0.6c0.3-0.1,0.7-0.2,1.2-0.3c0.5,0,1-0.1,1.6-0.1h2.2c0.4,0,0.8,0,1.1,0  c0.3,0,0.6,0.1,0.8,0.1c0.2,0.1,0.4,0.2,0.6,0.3c0.1,0.1,0.3,0.3,0.4,0.5h0v-1.5c0-0.4-0.1-0.6-0.2-0.9c-0.1-0.2-0.3-0.4-0.5-0.5  c-0.2-0.1-0.6-0.2-0.9-0.2c-0.4,0-0.8-0.1-1.3-0.1h-2c-0.4,0-0.8,0-1,0.1c-0.3,0-0.5,0.1-0.6,0.2c-0.1,0.1-0.2,0.2-0.3,0.3  c-0.1,0.1-0.1,0.3-0.1,0.4v0.3h-1.4v-0.4c0-0.4,0.1-0.7,0.2-0.9c0.1-0.3,0.3-0.5,0.6-0.6c0.3-0.2,0.6-0.3,1-0.4  c0.4-0.1,0.9-0.1,1.6-0.1h2.1c0.6,0,1.2,0,1.7,0.1c0.5,0.1,1,0.2,1.3,0.4c0.4,0.2,0.7,0.5,0.9,0.8c0.2,0.4,0.3,0.8,0.3,1.4v5.4  h-1.4V43.8z M203.7,42.1c0-0.3-0.1-0.5-0.2-0.7c-0.1-0.2-0.3-0.3-0.6-0.4c-0.3-0.1-0.6-0.1-1-0.2c-0.4,0-0.8,0-1.3,0h-2.1  c-0.4,0-0.8,0-1.1,0.1c-0.3,0-0.5,0.1-0.7,0.2c-0.2,0.1-0.3,0.2-0.4,0.4c-0.1,0.2-0.1,0.4-0.1,0.6v0.3c0,0.2,0,0.4,0.1,0.6  c0.1,0.2,0.2,0.3,0.3,0.4c0.2,0.1,0.4,0.2,0.7,0.2c0.3,0,0.7,0.1,1.1,0.1h1.8c0.6,0,1.1,0,1.6,0c0.4,0,0.8-0.1,1.1-0.2  c0.3-0.1,0.5-0.2,0.6-0.4c0.1-0.2,0.2-0.4,0.2-0.6V42.1z"></path>	<path class="st4" d="M207.6,36.5h1.3v1.2h0c0.1-0.3,0.3-0.5,0.5-0.6c0.2-0.2,0.4-0.3,0.6-0.4c0.2-0.1,0.4-0.2,0.7-0.2  c0.2,0,0.5-0.1,0.7-0.1h1.3c0.6,0,1.2,0.1,1.6,0.2c0.4,0.1,0.8,0.3,1,0.5c0.3,0.2,0.5,0.5,0.6,0.9c0.1,0.4,0.2,0.8,0.2,1.3v1h-1.3  v-0.3c0-0.5,0-0.9-0.1-1.2c-0.1-0.3-0.2-0.5-0.4-0.7c-0.2-0.2-0.5-0.3-0.9-0.3c-0.4-0.1-0.9-0.1-1.5-0.1h-0.8  c-0.4,0-0.7,0.1-0.9,0.2c-0.3,0.1-0.5,0.2-0.7,0.4c-0.2,0.2-0.3,0.4-0.4,0.6c-0.1,0.2-0.1,0.5-0.1,0.7v5.1h-1.4V36.5z"></path>	<path class="st4" d="M218.1,46.5c0.5,0,0.9,0,1.3,0c0.3,0,0.6-0.1,0.9-0.2c0.2-0.1,0.4-0.3,0.6-0.5c0.2-0.2,0.3-0.6,0.5-1H221  l-4.6-8.2h1.5l3.9,7.1l3.5-7.1h1.5l-4.5,9c-0.2,0.4-0.4,0.7-0.6,1c-0.2,0.3-0.4,0.5-0.7,0.6c-0.3,0.1-0.7,0.2-1.1,0.3  c-0.4,0.1-1,0.1-1.7,0.1V46.5z"></path>	<polygon class="st4" points="146.7,52 157.9,52 157.9,53.2 148.3,53.2 148.3,56.9 157.6,56.9 157.6,58.1 148.3,58.1 148.3,62.1   158,62.1 158,63.4 146.7,63.4  "></polygon>	<path class="st4" d="M170,63.4h-1.3v-1.3h0c-0.2,0.5-0.6,0.9-1.1,1.1c-0.5,0.2-1.1,0.3-1.8,0.3h-1.9c-0.6,0-1.2,0-1.7-0.1  c-0.5-0.1-0.9-0.3-1.3-0.5c-0.4-0.2-0.7-0.6-0.9-1c-0.2-0.4-0.3-1-0.3-1.7v-1.4c0-0.6,0.1-1.2,0.2-1.6c0.1-0.4,0.4-0.8,0.7-1.1  c0.3-0.3,0.8-0.5,1.3-0.6c0.5-0.1,1.2-0.2,2-0.2h2.1c0.8,0,1.4,0.1,1.8,0.3c0.4,0.2,0.7,0.5,0.8,0.9h0V52h1.4V63.4z M161.1,60.1  c0,0.4,0,0.7,0.1,1c0.1,0.3,0.2,0.5,0.4,0.7c0.2,0.2,0.5,0.3,0.8,0.4c0.3,0.1,0.8,0.1,1.4,0.1h2.2c0.5,0,0.9-0.1,1.3-0.2  c0.3-0.1,0.6-0.3,0.8-0.4c0.2-0.2,0.4-0.4,0.4-0.7c0.1-0.3,0.1-0.6,0.1-1v-1.5c0-0.5-0.1-0.9-0.2-1.2c-0.1-0.3-0.3-0.5-0.6-0.7  c-0.3-0.2-0.6-0.3-0.9-0.3c-0.4-0.1-0.8-0.1-1.2-0.1h-1.8c-0.5,0-0.9,0-1.2,0.1c-0.4,0.1-0.6,0.2-0.9,0.3c-0.2,0.2-0.4,0.4-0.5,0.7  c-0.1,0.3-0.2,0.7-0.2,1.1V60.1z"></path>	<path class="st4" d="M181.2,62L181.2,62c-0.2,0.3-0.3,0.6-0.5,0.8c-0.2,0.2-0.4,0.3-0.7,0.5c-0.3,0.1-0.6,0.2-0.9,0.2  c-0.3,0-0.7,0.1-1.2,0.1h-2c-0.6,0-1.2-0.1-1.6-0.2c-0.4-0.1-0.8-0.3-1-0.6c-0.3-0.3-0.4-0.5-0.6-0.9c-0.1-0.3-0.2-0.7-0.2-1v-5.4  h1.4v5.1c0,0.3,0,0.6,0.1,0.8c0.1,0.2,0.2,0.4,0.4,0.6c0.2,0.2,0.5,0.3,0.9,0.4c0.4,0.1,0.9,0.1,1.6,0.1h0.3c0.8,0,1.4,0,1.9-0.1  c0.5-0.1,0.9-0.2,1.2-0.4c0.3-0.2,0.5-0.4,0.6-0.8c0.1-0.3,0.2-0.7,0.2-1.2v-4.6h1.4v8h-1.3V62z"></path>	<path class="st4" d="M184.7,58.5c0-0.7,0.1-1.3,0.4-1.7c0.2-0.4,0.5-0.8,0.9-1c0.4-0.2,0.8-0.4,1.3-0.4c0.5-0.1,1-0.1,1.5-0.1h2.3  c1.3,0,2.2,0.2,2.7,0.7s0.8,1.2,0.8,2v0.2h-1.3V58c0-0.3-0.1-0.6-0.2-0.8c-0.1-0.2-0.3-0.4-0.4-0.5c-0.2-0.1-0.4-0.2-0.7-0.3  c-0.3,0-0.6-0.1-0.9-0.1h-2.5c-0.3,0-0.6,0-0.9,0.1c-0.3,0-0.6,0.1-0.8,0.3c-0.2,0.1-0.4,0.4-0.6,0.7c-0.1,0.3-0.2,0.7-0.2,1.2v1.7  c0,0.5,0.1,0.8,0.2,1.1c0.1,0.3,0.3,0.5,0.6,0.7c0.2,0.2,0.5,0.3,0.9,0.3c0.3,0.1,0.7,0.1,1.1,0.1h2.3c0.3,0,0.6,0,0.9-0.1  c0.3-0.1,0.5-0.1,0.7-0.3c0.2-0.1,0.4-0.3,0.5-0.5c0.1-0.2,0.2-0.5,0.2-0.8v-0.3h1.3v0.2c0,0.5-0.1,0.9-0.2,1.3  c-0.1,0.4-0.3,0.6-0.6,0.9c-0.3,0.2-0.7,0.4-1.1,0.5c-0.4,0.1-1,0.2-1.6,0.2h-3.1c-0.3,0-0.7,0-1-0.1c-0.4-0.1-0.8-0.2-1.1-0.4  c-0.3-0.2-0.6-0.6-0.9-1c-0.2-0.4-0.4-1-0.4-1.7V58.5z"></path>	<path class="st4" d="M205.1,62.6L205.1,62.6c-0.1,0.2-0.2,0.3-0.3,0.4c-0.1,0.1-0.3,0.2-0.5,0.3c-0.2,0.1-0.5,0.1-0.8,0.1  c-0.3,0-0.8,0-1.3,0h-3.2c-0.5,0-0.9-0.1-1.3-0.2c-0.3-0.1-0.6-0.3-0.8-0.5c-0.2-0.2-0.3-0.5-0.4-0.8c-0.1-0.3-0.1-0.6-0.1-1v-0.5  c0-0.5,0.1-0.8,0.2-1.1c0.2-0.3,0.4-0.5,0.7-0.6c0.3-0.1,0.7-0.2,1.2-0.3c0.5,0,1-0.1,1.6-0.1h2.2c0.4,0,0.8,0,1.1,0  c0.3,0,0.6,0.1,0.8,0.1c0.2,0.1,0.4,0.2,0.6,0.3c0.1,0.1,0.3,0.3,0.4,0.5h0V58c0-0.4-0.1-0.6-0.2-0.9c-0.1-0.2-0.3-0.4-0.5-0.5  c-0.2-0.1-0.6-0.2-0.9-0.2c-0.4,0-0.8-0.1-1.3-0.1h-2c-0.4,0-0.8,0-1,0.1c-0.3,0-0.5,0.1-0.6,0.2c-0.1,0.1-0.2,0.2-0.3,0.3  c-0.1,0.1-0.1,0.3-0.1,0.4v0.3h-1.4v-0.4c0-0.4,0.1-0.7,0.2-0.9c0.1-0.3,0.3-0.5,0.6-0.6c0.3-0.2,0.6-0.3,1-0.4  c0.4-0.1,0.9-0.1,1.6-0.1h2.1c0.6,0,1.2,0,1.7,0.1c0.5,0.1,1,0.2,1.3,0.4c0.4,0.2,0.7,0.5,0.9,0.8c0.2,0.4,0.3,0.8,0.3,1.4v5.4  h-1.4V62.6z M205.1,60.9c0-0.3-0.1-0.5-0.2-0.7c-0.1-0.2-0.3-0.3-0.6-0.4c-0.3-0.1-0.6-0.1-1-0.2c-0.4,0-0.8,0-1.3,0h-2.1  c-0.4,0-0.8,0-1.1,0.1c-0.3,0-0.5,0.1-0.7,0.2c-0.2,0.1-0.3,0.2-0.4,0.4c-0.1,0.2-0.1,0.4-0.1,0.6v0.3c0,0.2,0,0.4,0.1,0.6  c0.1,0.2,0.2,0.3,0.3,0.4c0.2,0.1,0.4,0.2,0.7,0.2c0.3,0,0.7,0.1,1.1,0.1h1.8c0.6,0,1.1,0,1.6,0c0.4,0,0.8-0.1,1.1-0.2  c0.3-0.1,0.5-0.2,0.6-0.4c0.1-0.2,0.2-0.4,0.2-0.6V60.9z"></path>	<path class="st4" d="M209.5,56.4h-1.8v-1.1h1.8v-1.9h1.4v1.9h5.4v1.1h-5.4v4c0,0.4,0,0.7,0.1,0.9c0.1,0.2,0.2,0.4,0.3,0.6  c0.2,0.2,0.4,0.3,0.6,0.3c0.3,0.1,0.6,0.1,0.9,0.1h0.4c0.5,0,0.8,0,1.1-0.1c0.3-0.1,0.5-0.2,0.6-0.3c0.1-0.2,0.2-0.4,0.3-0.6  c0-0.3,0.1-0.6,0.1-1v-0.6h1.1v0.9c0,0.4,0,0.8-0.1,1.1c0,0.4-0.2,0.7-0.4,0.9c-0.2,0.3-0.5,0.5-0.9,0.6c-0.4,0.1-1,0.2-1.7,0.2  h-0.7c-0.6,0-1.2-0.1-1.6-0.2c-0.4-0.1-0.7-0.3-1-0.6c-0.2-0.2-0.4-0.5-0.5-0.8c-0.1-0.3-0.1-0.6-0.1-0.9V56.4z"></path>	<path class="st4" d="M218.3,52h1.4v1.5h-1.4V52z M218.3,55.3h1.4v8h-1.4V55.3z"></path>	<path class="st4" d="M222.2,58.5c0-0.7,0.1-1.2,0.3-1.6c0.2-0.4,0.5-0.8,0.9-1c0.4-0.2,0.9-0.4,1.4-0.5c0.5-0.1,1.1-0.1,1.8-0.1  h1.9c0.6,0,1.2,0,1.8,0.1c0.5,0.1,1,0.3,1.4,0.5c0.4,0.2,0.7,0.6,0.9,1c0.2,0.4,0.3,1,0.3,1.6v1.8c0,0.7-0.1,1.2-0.3,1.6  c-0.2,0.4-0.5,0.8-0.9,1c-0.4,0.2-0.9,0.4-1.4,0.5c-0.5,0.1-1.1,0.1-1.8,0.1h-1.9c-0.6,0-1.2,0-1.8-0.1c-0.5-0.1-1-0.3-1.4-0.5  c-0.4-0.2-0.7-0.6-0.9-1c-0.2-0.4-0.3-1-0.3-1.6V58.5z M231.7,58.6c0-0.5-0.1-0.9-0.2-1.1c-0.1-0.3-0.3-0.5-0.6-0.7  c-0.2-0.2-0.5-0.3-0.9-0.3c-0.3-0.1-0.7-0.1-1.1-0.1h-2.8c-0.4,0-0.8,0-1.1,0.1c-0.3,0.1-0.6,0.2-0.8,0.3c-0.2,0.2-0.4,0.4-0.6,0.7  c-0.1,0.3-0.2,0.7-0.2,1.1v1.6c0,0.5,0.1,0.9,0.2,1.1c0.1,0.3,0.3,0.5,0.6,0.7c0.2,0.2,0.5,0.3,0.8,0.3s0.7,0.1,1.1,0.1h2.8  c0.4,0,0.7,0,1.1-0.1c0.3-0.1,0.6-0.2,0.9-0.3c0.2-0.2,0.4-0.4,0.6-0.7c0.1-0.3,0.2-0.7,0.2-1.1V58.6z"></path>	<path class="st4" d="M235.3,55.3h1.3v1.4h0c0.1-0.3,0.3-0.6,0.5-0.8c0.2-0.2,0.4-0.3,0.7-0.5c0.3-0.1,0.6-0.2,0.9-0.2  c0.3,0,0.7-0.1,1.2-0.1h2c0.6,0,1.2,0.1,1.6,0.2c0.4,0.1,0.8,0.3,1,0.6c0.3,0.3,0.4,0.5,0.6,0.9c0.1,0.3,0.2,0.7,0.2,1v5.4h-1.4  v-5.1c0-0.3,0-0.6-0.1-0.8c-0.1-0.2-0.2-0.4-0.4-0.6c-0.2-0.2-0.5-0.3-0.9-0.4c-0.4-0.1-0.9-0.1-1.6-0.1h-0.3c-0.8,0-1.4,0-1.9,0.1  c-0.5,0.1-0.9,0.2-1.2,0.4c-0.3,0.2-0.5,0.4-0.6,0.8c-0.1,0.3-0.2,0.7-0.2,1.2v4.6h-1.4V55.3z"></path>	<path class="st2" d="M135,72.3c-0.3,0-0.5-0.2-0.5-0.5V8.1c0-0.3,0.2-0.5,0.5-0.5c0.3,0,0.5,0.2,0.5,0.5v63.7  C135.5,72.1,135.3,72.3,135,72.3"></path>	<path class="st1" d="M6.7,40.7c1.3,2.9,3.2,5.4,5.7,7.4c2.1,1.7,4.2,2.9,6.6,3.6c2.3,0.7,5.6,1.1,9.9,1.1l21.7-0.1l0.1-6.1H28.9  c-2.9,0-5.2-0.2-6.9-0.7c-1.7-0.5-3.2-1.2-4.5-2.3c-1.9-1.5-3.4-3.4-4.3-5.6c-0.7-1.5-1.1-3.2-1.3-5h-7C5.1,35.9,5.7,38.4,6.7,40.7  "></path>	<g>		<defs>			<path id="SVGID_00000164492044878604424950000014970896823240238737_" d="M28.6,8.1c-3.1,0-5.5,0.2-7.1,0.4    c-1.6,0.3-3.1,0.8-4.5,1.5c-1.6,0.8-3,1.8-4.3,2.9c-1.3,1.1-2.5,2.4-3.5,3.8c-1.5,2-2.6,4.2-3.3,6.6c-0.7,2.4-1.1,5-1.1,7.7    c0,0.7,0,1.4,0.1,2.1h7c-0.1-0.9-0.1-1.8-0.1-2.7c0-2.7,0.5-5.2,1.5-7.5c1-2.3,2.4-4.2,4.4-5.8c1.2-1,2.7-1.8,4.5-2.2    c1.8-0.5,4-0.7,6.6-0.7h7.8c0.3,0,6.6-6,6.6-6H28.6z"></path>		</defs>		<clipPath id="SVGID_00000029003297630327543790000007763402565250569919_">			<use xlink:href="#SVGID_00000164492044878604424950000014970896823240238737_" style="overflow:visible;"></use>		</clipPath>					<linearGradient id="SVGID_00000048484340229997981590000014428715411269267609_" gradientUnits="userSpaceOnUse" x1="-840.1916" y1="665.7122" x2="-839.8659" y2="665.7122" gradientTransform="matrix(0 -76.813 76.813 0 -51111.4141 -64504.4414)">			<stop offset="0" style="stop-color:#A16762"></stop>			<stop offset="0.359" style="stop-color:#95484D"></stop>			<stop offset="1" style="stop-color:#801429"></stop>		</linearGradient>					<rect x="4.8" y="8.1" style="clip-path:url(#SVGID_00000029003297630327543790000007763402565250569919_);fill:url(#SVGID_00000048484340229997981590000014428715411269267609_);" width="38.2" height="25"></rect>	</g>	<g>		<defs>			<path id="SVGID_00000016770357437982344840000016016881187172868026_" d="M49.1,8.1c0,0-6.7,6-6.5,6h17.9l0,19H67l0-19h19.1l7-6    H49.1z"></path>		</defs>		<clipPath id="SVGID_00000098913811485885682250000009642365181614084994_">			<use xlink:href="#SVGID_00000016770357437982344840000016016881187172868026_" style="overflow:visible;"></use>		</clipPath>					<linearGradient id="SVGID_00000038396997569188687490000017564248469296537730_" gradientUnits="userSpaceOnUse" x1="-840.1916" y1="664.5308" x2="-839.8659" y2="664.5308" gradientTransform="matrix(0 -76.813 76.813 0 -50976.8438 -64504.4414)">			<stop offset="0" style="stop-color:#A16762"></stop>			<stop offset="0.359" style="stop-color:#95484D"></stop>			<stop offset="1" style="stop-color:#801429"></stop>		</linearGradient>					<rect x="42.3" y="8.1" style="clip-path:url(#SVGID_00000098913811485885682250000009642365181614084994_);fill:url(#SVGID_00000038396997569188687490000017564248469296537730_);" width="50.8" height="25"></rect>	</g>	<rect x="60.4" y="33.2" class="st1" width="6.6" height="19.6"></rect>	<g>		<defs>			<rect id="SVGID_00000176020005032996130160000002731738595303642269_" x="76.9" y="18.5" width="6.6" height="14.7"></rect>		</defs>		<clipPath id="SVGID_00000106867243322213706480000008873887025171312800_">			<use xlink:href="#SVGID_00000176020005032996130160000002731738595303642269_" style="overflow:visible;"></use>		</clipPath>					<linearGradient id="SVGID_00000168098268902003293790000001052122282373070248_" gradientUnits="userSpaceOnUse" x1="-844.5623" y1="665.0372" x2="-844.2366" y2="665.0372" gradientTransform="matrix(0 -45.0275 45.0275 0 -29864.7324 -37995.3555)">			<stop offset="0" style="stop-color:#9495A2"></stop>			<stop offset="0.2335" style="stop-color:#8E909D"></stop>			<stop offset="0.5384" style="stop-color:#7E8190"></stop>			<stop offset="0.8816" style="stop-color:#63697B"></stop>			<stop offset="1" style="stop-color:#585F72"></stop>		</linearGradient>					<rect x="76.9" y="18.5" style="clip-path:url(#SVGID_00000106867243322213706480000008873887025171312800_);fill:url(#SVGID_00000168098268902003293790000001052122282373070248_);" width="6.6" height="14.7"></rect>	</g>	<path class="st2" d="M107.9,33.2l0,7.7c0,2.5-0.9,4.3-2.6,5.3c-1.8,1-17.4,1-19.1,0c-1.7-1-2.6-2.8-2.6-5.3v-7.7h-6.6v9.7  c0,3.6,1.6,6.3,4.7,8.1c3.1,1.8,7.8,1.9,14,1.9c4.1,0,11.4-0.1,11.4-0.1l7.3-6.1l0-13.5H107.9z"></path>	<g>		<defs>			<polygon id="SVGID_00000106834072616689099110000000514540167616208022_" points="107.9,14.2 107.9,33.2 114.4,33.2 114.4,9     114.4,8.2    "></polygon>		</defs>		<clipPath id="SVGID_00000139974155087052536480000008926524012495715482_">			<use xlink:href="#SVGID_00000106834072616689099110000000514540167616208022_" style="overflow:visible;"></use>		</clipPath>					<linearGradient id="SVGID_00000086674210987244633100000007207801163891201978_" gradientUnits="userSpaceOnUse" x1="-840.197" y1="663.3604" x2="-839.8713" y2="663.3604" gradientTransform="matrix(0 -76.7462 76.7462 0 -50799.2539 -64448.793)">			<stop offset="0" style="stop-color:#9495A2"></stop>			<stop offset="0.2335" style="stop-color:#8E909D"></stop>			<stop offset="0.5384" style="stop-color:#7E8190"></stop>			<stop offset="0.8816" style="stop-color:#63697B"></stop>			<stop offset="1" style="stop-color:#585F72"></stop>		</linearGradient>					<rect x="107.9" y="8.2" style="clip-path:url(#SVGID_00000139974155087052536480000008926524012495715482_);fill:url(#SVGID_00000086674210987244633100000007207801163891201978_);" width="6.5" height="25"></rect>	</g></g></svg>