<svg xmlns="http://www.w3.org/2000/svg" xmlns:xlink="http://www.w3.org/1999/xlink" id="Layer_1" x="0px" y="0px" viewBox="0 0 250 80" style="enable-background:new 0 0 250 80;" xml:space="preserve"><style type="text/css">	.st0{fill:#FFFFFF;}	.st1{clip-path:url(#SVGID_00000080903670801655957090000017289331289307768228_);fill:#FFFFFF;}	.st2{clip-path:url(#SVGID_00000134228083645492232250000005012308925358716564_);fill:#FFFFFF;}	.st3{clip-path:url(#SVGID_00000147904412503692821290000015660790978755174841_);fill:#FFFFFF;}	.st4{clip-path:url(#SVGID_00000109744263766625211220000008906009709021945507_);fill:#FFFFFF;}</style><g>	<path class="st0" d="M28.6,14.2c-2.7,0-4.9,0.2-6.6,0.7c-1.8,0.5-3.3,1.2-4.5,2.2c-1.9,1.6-3.4,3.6-4.4,5.8c-1,2.3-1.5,4.8-1.5,7.5   c0,2.9,0.5,5.5,1.4,7.7c1,2.2,2.4,4.1,4.3,5.6c1.4,1.1,2.9,1.8,4.5,2.3c1.7,0.5,4,0.7,6.9,0.7h21.8l-0.1,6.1l-21.7,0.1   c-4.2,0-7.5-0.4-9.9-1.1c-2.3-0.7-4.5-1.9-6.6-3.6c-2.5-2.1-4.4-4.5-5.7-7.4s-1.9-6.1-1.9-9.6c0-2.7,0.4-5.3,1.1-7.7   c0.7-2.4,1.9-4.6,3.3-6.6c1-1.4,2.2-2.7,3.5-3.8s2.8-2.1,4.3-2.9c1.4-0.7,2.9-1.2,4.5-1.5s4-0.4,7.1-0.4H43c0,0-6.3,6-6.6,6   L28.6,14.2L28.6,14.2z"></path>	<path class="st0" d="M60.5,14.2h-18c-0.2,0,6.5-6,6.5-6h44.1l-7,6H67v38.6h-6.6L60.5,14.2z"></path>	<path class="st0" d="M107.9,40.9V14.2l6.5-6v38.5l-7.3,6.1c0,0-7.3,0.1-11.4,0.1c-6.2,0-10.9-0.1-14-1.9c-3.1-1.8-4.7-4.5-4.7-8.1   V18.5h6.6v22.4c0,2.5,0.9,4.3,2.6,5.3s17.4,1,19.1,0C107,45.2,107.9,43.4,107.9,40.9L107.9,40.9z"></path>	<polygon class="st0" points="124.1,71.8 117.6,58.2 103,62 124.1,43.7  "></polygon>	<path class="st0" d="M9.6,65.1H6.9v3.4c0,0.3,0.1,0.5,0.2,0.7c0.1,0.1,0.4,0.2,0.8,0.2c0.5,0,0.7-0.1,0.8-0.3   c0.1-0.2,0.1-0.4,0.1-0.7V68h1c0,0.6-0.1,1.1-0.3,1.4C9.3,69.8,8.8,70,7.9,70c-0.8,0-1.3-0.1-1.6-0.3C6,69.5,5.9,69,5.9,68.5v-3.4   H5v-0.7h0.9V63H7v1.3h2.7L9.6,65.1L9.6,65.1z"></path>	<path class="st0" d="M12,64.4V65c0.2-0.3,0.5-0.5,0.8-0.6s0.7-0.2,1.1-0.2c0.7,0,1.2,0.1,1.5,0.4s0.5,0.7,0.5,1.2V66   c0,0.1,0,0.1,0,0.2h-1c0-0.1,0-0.1,0-0.2v-0.2c0-0.3-0.1-0.6-0.3-0.7s-0.5-0.2-0.9-0.2c-0.5,0-0.9,0.1-1.2,0.3   c-0.3,0.2-0.4,0.5-0.4,1v0.3v3.4h-1v-5.5L12,64.4L12,64.4z"></path>	<path class="st0" d="M16.7,66c0-0.8,0.3-1.2,0.8-1.4c0.5-0.2,1.2-0.2,2-0.2c1,0,1.7,0.1,2.2,0.3c0.5,0.2,0.8,0.8,0.8,1.6v3.6h-1   v-0.6c-0.3,0.3-0.6,0.5-1,0.6S19.6,70,19.2,70c-0.9,0-1.5-0.1-2-0.3c-0.5-0.2-0.7-0.7-0.7-1.4c0-0.7,0.3-1.2,0.8-1.4   c0.5-0.2,1.2-0.3,1.9-0.3c0.1,0,0.2,0,0.3,0c0.1,0,0.2,0,0.4,0c0.2,0,0.4,0,0.5,0.1c0.2,0,0.3,0.1,0.5,0.1c0.1,0,0.2,0.1,0.3,0.1   c0.1,0.1,0.1,0.1,0.2,0.2v-0.7c0-0.7-0.1-1.1-0.4-1.3c-0.2-0.2-0.8-0.2-1.6-0.2c-0.1,0-0.2,0-0.3,0c-0.1,0-0.2,0-0.3,0   c-0.1,0-0.3,0-0.4,0.1c-0.1,0-0.2,0.1-0.3,0.1c-0.1,0.1-0.2,0.1-0.2,0.2s-0.1,0.2-0.1,0.3c0,0,0,0,0,0.1v0.1v0.1V66L16.7,66   L16.7,66z M17.9,69.1c0.2,0.2,0.7,0.2,1.2,0.2h0.3c0.1,0,0.2,0,0.3,0c0.4,0,0.8-0.1,1.1-0.2c0.3-0.1,0.5-0.4,0.5-0.8   c0-0.5-0.2-0.8-0.6-0.9s-0.8-0.2-1.4-0.2H19l0,0c-0.1,0-0.2,0-0.3,0c-0.2,0-0.3,0-0.5,0.1c-0.2,0-0.3,0.1-0.4,0.2   c-0.1,0-0.1,0.1-0.2,0.2c0,0.1-0.1,0.2-0.1,0.2V68v0.1C17.5,68.7,17.6,69,17.9,69.1L17.9,69.1z"></path>	<path class="st0" d="M25.7,62.9h-1.1V62h1.1V62.9z M25.7,69.9h-1.1v-5.5h1.1V69.9z"></path>	<path class="st0" d="M28.8,64.4v0.7c0.3-0.3,0.6-0.6,1-0.7s0.9-0.2,1.3-0.2c0.9,0,1.6,0.1,2,0.4s0.6,0.8,0.6,1.6v3.7h-1.1v-3.6   c0-0.6-0.1-0.9-0.3-1.1C32.1,65.1,31.7,65,31,65s-1.2,0.1-1.5,0.4C29.1,65.6,29,66,29,66.6V70h-1v-5.5L28.8,64.4L28.8,64.4z"></path>	<path class="st0" d="M36.8,62.9h-1.1V62h1.1V62.9z M36.8,69.9h-1.1v-5.5h1.1V69.9z"></path>	<path class="st0" d="M39.8,64.4v0.7c0.3-0.3,0.6-0.6,1-0.7s0.9-0.2,1.3-0.2c0.9,0,1.6,0.1,2,0.4s0.6,0.8,0.6,1.6v3.7h-1.1v-3.6   c0-0.6-0.1-0.9-0.3-1.1s-0.7-0.3-1.4-0.3s-1.2,0.1-1.5,0.4c-0.4,0.2-0.5,0.6-0.5,1.2v3.4h-1v-5.5H39.8z"></path>	<path class="st0" d="M52.5,70.3c0,0.9-0.3,1.4-0.8,1.7c-0.5,0.3-1.3,0.4-2.3,0.4c-0.9,0-1.6-0.1-2-0.3c-0.5-0.2-0.7-0.7-0.7-1.5h1   c0,0.5,0.2,0.8,0.4,0.9s0.6,0.2,1.2,0.2c0.7,0,1.2-0.1,1.6-0.2c0.4-0.1,0.6-0.5,0.6-1.2v-1.1c-0.2,0.3-0.5,0.5-0.8,0.6   C50.3,69.9,50,70,49.6,70c-0.1,0-0.1,0-0.2,0h-0.2c-1.1,0-1.8-0.2-2.2-0.7c-0.3-0.5-0.5-1.1-0.5-1.9c0-0.9,0.1-1.6,0.4-2.2   c0.3-0.6,1.1-0.9,2.4-0.9c0.5,0,0.9,0.1,1.3,0.1c0.4,0.1,0.7,0.3,1,0.6v-0.7h1L52.5,70.3L52.5,70.3z M47.6,67.4   c0,0.6,0.1,1.1,0.3,1.5c0.2,0.3,0.7,0.5,1.6,0.5c0.5,0,1-0.1,1.3-0.3c0.3-0.2,0.5-0.5,0.6-1c0-0.2,0-0.3,0-0.5s0-0.3,0-0.5   c0-0.6-0.1-1.2-0.3-1.6C51,65.2,50.5,65,49.5,65c-0.8,0-1.3,0.1-1.5,0.4c-0.2,0.2-0.4,0.7-0.4,1.3v0.5V67.4z"></path>	<path class="st0" d="M62.2,65.8c0-0.3-0.1-0.5-0.2-0.6C62,65.1,61.6,65,61.2,65c-0.2,0-0.4,0-0.6,0h-0.6h-0.2c-0.1,0-0.2,0-0.2,0   c-0.1,0-0.3,0-0.4,0c-0.1,0-0.3,0.1-0.4,0.1c-0.1,0.1-0.1,0.1-0.2,0.2c0,0.1,0,0.2-0.1,0.2v0.1v0.1c0,0.3,0.1,0.6,0.2,0.7   c0.1,0.1,0.4,0.2,0.8,0.2c0.1,0,0.3,0,0.4,0h0.4c0.8,0,1.5,0.1,2.1,0.2s0.9,0.6,0.9,1.4s-0.3,1.3-0.8,1.5s-1.2,0.2-2.1,0.2h-0.1   h-0.1c-0.7,0-1.3-0.1-1.9-0.2c-0.6-0.2-0.9-0.6-0.9-1.3v-0.1v-0.1c0,0,0,0,0-0.1V68h1c0,0.5,0.1,0.8,0.4,1c0.2,0.1,0.7,0.2,1.3,0.2   h0.3c0.1,0,0.2,0,0.3,0s0.2,0,0.4,0s0.3,0,0.5-0.1c0.2,0,0.3-0.1,0.4-0.1c0.1-0.1,0.2-0.1,0.2-0.2s0.1-0.2,0.1-0.3v-0.1v-0.1   c0-0.4-0.1-0.7-0.4-0.8c-0.3-0.1-0.6-0.1-1-0.1l0,0l0,0c-0.1,0-0.1,0-0.2,0h-0.2c-0.1,0-0.1,0-0.1,0h-0.1c-0.7,0-1.3-0.1-1.8-0.2   s-0.8-0.6-0.8-1.3c0-0.1,0-0.1,0-0.2s0-0.2,0-0.2c0-0.2,0.1-0.3,0.1-0.5c0.1-0.1,0.2-0.3,0.3-0.4c0.2-0.1,0.4-0.2,0.6-0.2   c0.2-0.1,0.5-0.1,0.7-0.1s0.3,0,0.5,0s0.3,0,0.5,0h0.4c0.1,0,0.3,0,0.4,0c0.5,0,1,0.1,1.5,0.3c0.4,0.2,0.7,0.5,0.7,1v0.1v0.1l0,0   l0,0H62.2z"></path>	<path class="st0" d="M64.9,64.9c0.4-0.4,1.2-0.7,2.4-0.7c1.3,0,2.2,0.2,2.6,0.6s0.6,1.1,0.6,2.1c0,0.9-0.1,1.6-0.4,2.2   c-0.2,0.6-1.1,0.8-2.5,0.8c-1.2,0-2.1-0.2-2.6-0.5s-0.7-1-0.7-2V67C64.4,66.1,64.6,65.4,64.9,64.9L64.9,64.9z M65.5,67.5v0.3   c0,0.1,0,0.2,0,0.3c0,0.2,0.1,0.4,0.1,0.7c0.1,0.2,0.2,0.4,0.3,0.5c0.1,0.1,0.2,0.1,0.4,0.2c0.2,0,0.3,0.1,0.5,0.1h0.1H67h0.5   c0.6,0,1.1-0.1,1.4-0.2s0.5-0.5,0.5-1c0-0.1,0-0.2,0-0.3c0-0.1,0-0.2,0-0.3c0-0.1,0-0.2,0-0.3v-0.3c0-0.7-0.1-1.2-0.2-1.5   c-0.2-0.3-0.7-0.4-1.5-0.4h-0.2c-0.9,0-1.5,0.1-1.7,0.3c-0.2,0.2-0.3,0.7-0.3,1.5V67C65.6,67,65.6,67.5,65.5,67.5z"></path>	<rect x="72.4" y="62" class="st0" width="1.1" height="7.9"></rect>	<path class="st0" d="M81.2,69.9h-1v-0.7c-0.3,0.4-0.6,0.6-1,0.7C78.8,70,78.3,70,77.8,70c-0.8,0-1.4-0.2-1.8-0.5s-0.6-0.8-0.6-1.5   v-3.7h1.1V68c0,0.5,0.1,0.8,0.3,1c0.2,0.2,0.6,0.3,1.3,0.3c0.8,0,1.4-0.1,1.6-0.4c0.3-0.2,0.4-0.7,0.4-1.3v-3.3h1.1   C81.2,64.3,81.2,69.9,81.2,69.9z"></path>	<path class="st0" d="M87.4,65.1h-2.7v3.4c0,0.3,0.1,0.5,0.2,0.7c0.1,0.1,0.4,0.2,0.8,0.2c0.5,0,0.7-0.1,0.8-0.3   c0.1-0.2,0.1-0.4,0.1-0.7V68h1c0,0.6-0.1,1.1-0.3,1.4c-0.2,0.4-0.8,0.6-1.6,0.6c-0.8,0-1.3-0.1-1.6-0.3c-0.3-0.2-0.4-0.6-0.4-1.2   v-3.4h-0.9v-0.7h0.9V63h1.1v1.3h2.7L87.4,65.1L87.4,65.1z"></path>	<path class="st0" d="M90.9,62.9h-1.1V62h1.1V62.9z M90.9,69.9h-1.1v-5.5h1.1V69.9z"></path>	<path class="st0" d="M93.4,64.9c0.4-0.4,1.2-0.7,2.4-0.7c1.3,0,2.2,0.2,2.6,0.6s0.6,1.1,0.6,2.1c0,0.9-0.1,1.6-0.4,2.2   c-0.2,0.6-1.1,0.8-2.5,0.8c-1.2,0-2.1-0.2-2.6-0.5s-0.7-1-0.7-2V67C92.9,66.1,93,65.4,93.4,64.9L93.4,64.9z M93.9,67.5v0.3   c0,0.1,0,0.2,0,0.3c0,0.2,0.1,0.4,0.1,0.7c0.1,0.2,0.2,0.4,0.3,0.5c0.1,0.1,0.2,0.1,0.4,0.2c0.2,0,0.3,0.1,0.5,0.1h0.1h0.1h0.5   c0.6,0,1.1-0.1,1.4-0.2s0.5-0.5,0.5-1c0-0.1,0-0.2,0-0.3c0-0.1,0-0.2,0-0.3c0-0.1,0-0.2,0-0.3v-0.3c0-0.7-0.1-1.2-0.2-1.5   C97.5,65.1,97,65,96.2,65H96c-0.9,0-1.5,0.1-1.7,0.3C94.2,65.5,94,66,94,66.8V67L93.9,67.5L93.9,67.5z"></path>	<path class="st0" d="M101.4,64.4v0.7c0.3-0.3,0.6-0.6,1-0.7s0.9-0.2,1.3-0.2c0.9,0,1.6,0.1,2,0.4s0.6,0.8,0.6,1.6v3.7h-1.1v-3.6   c0-0.6-0.1-0.9-0.3-1.1c-0.2-0.2-0.7-0.3-1.4-0.3c-0.7,0-1.2,0.1-1.5,0.4c-0.4,0.2-0.5,0.6-0.5,1.2v3.4h-1v-5.5H101.4z"></path>	<path class="st0" d="M112.3,65.8c0-0.3-0.1-0.5-0.2-0.6s-0.4-0.2-0.8-0.2c-0.2,0-0.4,0-0.6,0h-0.6H110c-0.1,0-0.2,0-0.2,0   c-0.1,0-0.3,0-0.4,0s-0.3,0.1-0.4,0.1c-0.1,0.1-0.1,0.1-0.2,0.2c0,0.1,0,0.2-0.1,0.2v0.1v0.1c0,0.3,0.1,0.6,0.2,0.7   s0.4,0.2,0.8,0.2c0.1,0,0.3,0,0.4,0h0.4c0.8,0,1.5,0.1,2.1,0.2s0.9,0.6,0.9,1.4s-0.3,1.3-0.8,1.5s-1.2,0.2-2.1,0.2h-0.1h-0.1   c-0.7,0-1.3-0.1-1.9-0.2c-0.6-0.2-0.9-0.6-0.9-1.3v-0.1v-0.1c0,0,0,0,0-0.1V68h1c0,0.5,0.1,0.8,0.4,1c0.2,0.1,0.7,0.2,1.3,0.2h0.3   c0.1,0,0.2,0,0.3,0c0.1,0,0.2,0,0.4,0c0.2,0,0.3,0,0.5-0.1c0.2,0,0.3-0.1,0.4-0.1c0.1-0.1,0.2-0.1,0.2-0.2s0.1-0.2,0.1-0.3v-0.1   v-0.1c0-0.4-0.1-0.7-0.4-0.8c-0.3-0.1-0.6-0.1-1-0.1l0,0l0,0c-0.1,0-0.1,0-0.2,0h-0.2c-0.1,0-0.1,0-0.1,0h-0.1   c-0.7,0-1.3-0.1-1.8-0.2s-0.8-0.6-0.8-1.3c0-0.1,0-0.1,0-0.2s0-0.2,0-0.2c0-0.2,0.1-0.3,0.1-0.5c0.1-0.1,0.2-0.3,0.3-0.4   c0.2-0.1,0.4-0.2,0.6-0.2c0.2-0.1,0.5-0.1,0.7-0.1s0.3,0,0.5,0s0.3,0,0.5,0h0.4c0.1,0,0.3,0,0.4,0c0.5,0,1,0.1,1.5,0.3   c0.4,0.2,0.7,0.5,0.7,1v0.1v0.1l0,0l0,0H112.3z"></path>	<path class="st0" d="M146.8,14.4h9.4c0.5,0,1,0,1.4,0.1s0.8,0.2,1,0.4c0.3,0.2,0.5,0.5,0.6,0.9c0.1,0.4,0.2,0.9,0.2,1.6   c0,0.6,0,1.2-0.1,1.7s-0.2,0.9-0.4,1.2s-0.6,0.6-1.1,0.7c-0.5,0.2-1.1,0.2-2,0.2h-7.6v4.5h-1.5V14.4H146.8z M157.9,17.3   c0-0.3,0-0.6-0.1-0.8c-0.1-0.2-0.2-0.4-0.4-0.5c-0.2-0.1-0.4-0.2-0.7-0.3c-0.3,0-0.6-0.1-0.9-0.1h-7.5V20h7.6   c0.6,0,1.1-0.1,1.4-0.4c0.3-0.2,0.5-0.7,0.5-1.3L157.9,17.3L157.9,17.3z"></path>	<path class="st0" d="M161.4,17.8h1.3V19l0,0c0.1-0.3,0.3-0.5,0.5-0.6c0.2-0.2,0.4-0.3,0.6-0.4c0.2-0.1,0.5-0.2,0.7-0.2   s0.5-0.1,0.7-0.1h1.3c0.6,0,1.2,0.1,1.6,0.2c0.4,0.1,0.8,0.3,1,0.5c0.3,0.2,0.5,0.5,0.6,0.9c0.1,0.4,0.2,0.8,0.2,1.3v1h-1.3V21   c0-0.5,0-0.9-0.1-1.2s-0.2-0.5-0.4-0.7s-0.5-0.3-0.9-0.3c-0.4-0.1-0.9-0.1-1.5-0.1H165c-0.4,0-0.7,0.1-0.9,0.2   c-0.3,0.1-0.5,0.2-0.7,0.4s-0.3,0.4-0.4,0.6c-0.1,0.2-0.1,0.5-0.1,0.7v5.1h-1.4L161.4,17.8L161.4,17.8z"></path>	<path class="st0" d="M171.7,14.4h1.4v1.5h-1.4V14.4z M171.7,17.8h1.4v8h-1.4V17.8z"></path>	<polygon class="st0" points="174.6,17.8 176.1,17.8 179.9,24.7 183.9,17.8 185.2,17.8 180.8,25.8 179.2,25.8  "></polygon>	<path class="st0" d="M194.9,25L194.9,25c-0.1,0.2-0.2,0.3-0.3,0.4c-0.1,0.1-0.3,0.2-0.5,0.3c-0.2,0.1-0.5,0.1-0.8,0.1s-0.8,0-1.3,0   h-3.2c-0.5,0-0.9-0.1-1.3-0.2c-0.3-0.1-0.6-0.3-0.8-0.5s-0.3-0.5-0.4-0.8c-0.1-0.3-0.1-0.6-0.1-1V23c0-0.5,0.1-0.8,0.2-1.1   c0.2-0.3,0.4-0.5,0.7-0.6c0.3-0.1,0.7-0.2,1.2-0.3c0.5,0,1-0.1,1.6-0.1h2.2c0.4,0,0.8,0,1.1,0s0.6,0.1,0.8,0.1   c0.2,0.1,0.4,0.2,0.6,0.3c0.1,0.1,0.3,0.3,0.4,0.5l0,0v-1.5c0-0.4-0.1-0.6-0.2-0.9c-0.1-0.2-0.3-0.4-0.5-0.5   c-0.2-0.1-0.6-0.2-0.9-0.2c-0.4,0-0.8-0.1-1.3-0.1h-2c-0.4,0-0.8,0-1,0.1c-0.3,0-0.5,0.1-0.6,0.2c-0.1,0.1-0.2,0.2-0.3,0.3   c-0.1,0.1-0.1,0.3-0.1,0.4v0.3h-1.4v-0.4c0-0.4,0.1-0.7,0.2-0.9c0.1-0.3,0.3-0.5,0.6-0.6c0.3-0.2,0.6-0.3,1-0.4   c0.4-0.1,0.9-0.1,1.6-0.1h2.1c0.6,0,1.2,0,1.7,0.1c0.5,0.1,1,0.2,1.3,0.4c0.4,0.2,0.7,0.5,0.9,0.8c0.2,0.4,0.3,0.8,0.3,1.4v5.4   h-1.4V25H194.9z M194.9,23.3c0-0.3-0.1-0.5-0.2-0.7c-0.1-0.2-0.3-0.3-0.6-0.4c-0.3-0.1-0.6-0.1-1-0.2c-0.4,0-0.8,0-1.3,0h-2.1   c-0.4,0-0.8,0-1.1,0.1c-0.3,0-0.5,0.1-0.7,0.2c-0.2,0.1-0.3,0.2-0.4,0.4c-0.1,0.2-0.1,0.4-0.1,0.6v0.3c0,0.2,0,0.4,0.1,0.6   s0.2,0.3,0.3,0.4c0.2,0.1,0.4,0.2,0.7,0.2s0.7,0.1,1.1,0.1h1.8c0.6,0,1.1,0,1.6,0c0.4,0,0.8-0.1,1.1-0.2c0.3-0.1,0.5-0.2,0.6-0.4   c0.1-0.2,0.2-0.4,0.2-0.6L194.9,23.3L194.9,23.3z"></path>	<path class="st0" d="M199.4,18.9h-1.8v-1.1h1.8v-1.9h1.4v1.9h5.4v1.1h-5.4v4c0,0.4,0,0.7,0.1,0.9s0.2,0.4,0.3,0.6   c0.2,0.2,0.4,0.3,0.6,0.3c0.3,0.1,0.6,0.1,0.9,0.1h0.4c0.5,0,0.8,0,1.1-0.1c0.3-0.1,0.5-0.2,0.6-0.3c0.1-0.2,0.2-0.4,0.3-0.6   c0-0.3,0.1-0.6,0.1-1v-0.6h1.1V23c0,0.4,0,0.8-0.1,1.1c0,0.4-0.2,0.7-0.4,0.9c-0.2,0.3-0.5,0.5-0.9,0.6c-0.4,0.1-1,0.2-1.7,0.2   h-0.7c-0.6,0-1.2-0.1-1.6-0.2c-0.4-0.1-0.7-0.3-1-0.6c-0.2-0.2-0.4-0.5-0.5-0.8s-0.1-0.6-0.1-0.9L199.4,18.9L199.4,18.9z"></path>	<path class="st0" d="M207.7,20.9c0-0.7,0.1-1.3,0.3-1.7c0.2-0.4,0.5-0.8,0.9-1s0.8-0.4,1.3-0.4c0.5-0.1,0.9-0.1,1.4-0.1h2.2   c0.6,0,1.2,0,1.7,0.1c0.5,0.1,0.9,0.3,1.3,0.5c0.4,0.3,0.7,0.6,0.9,1.1s0.3,1,0.3,1.7V22h-8.9v0.5c0,0.5,0.1,0.8,0.2,1.1   c0.1,0.3,0.3,0.5,0.6,0.7s0.6,0.3,1,0.4c0.4,0.1,0.9,0.1,1.5,0.1h1.9c0.4,0,0.8,0,1.1-0.1c0.3,0,0.6-0.1,0.8-0.2   c0.2-0.1,0.3-0.3,0.4-0.4c0.1-0.2,0.2-0.4,0.2-0.7h1.4v0.2c0,0.5-0.1,0.8-0.3,1.2c-0.2,0.3-0.5,0.5-0.8,0.7   c-0.4,0.2-0.8,0.3-1.3,0.4c-0.5,0.1-1.1,0.1-1.7,0.1h-2.5c-0.4,0-0.9,0-1.3-0.1c-0.5-0.1-0.9-0.2-1.2-0.4c-0.4-0.2-0.7-0.6-0.9-1   c-0.2-0.4-0.3-1-0.3-1.8v-1.8H207.7z M216.7,20.4c0-0.2,0-0.4-0.1-0.6s-0.2-0.4-0.4-0.5c-0.2-0.2-0.5-0.3-0.9-0.4   c-0.4-0.1-0.8-0.1-1.4-0.1h-2c-0.5,0-1,0-1.3,0.1c-0.3,0.1-0.6,0.2-0.8,0.3c-0.2,0.2-0.4,0.4-0.4,0.7c-0.1,0.3-0.1,0.7-0.2,1.1h7.6   v-0.6H216.7z"></path>	<polygon class="st0" points="152.6,34.4 146.8,34.4 146.8,33.2 159.9,33.2 159.9,34.4 154.1,34.4 154.1,44.6 152.6,44.6  "></polygon>	<path class="st0" d="M159.2,39.7c0-0.7,0.1-1.3,0.3-1.7s0.5-0.8,0.9-1s0.8-0.4,1.3-0.4c0.5-0.1,0.9-0.1,1.4-0.1h2.2   c0.6,0,1.2,0,1.7,0.1s0.9,0.3,1.3,0.5c0.4,0.3,0.7,0.6,0.9,1.1s0.3,1,0.3,1.7v0.9h-8.9v0.5c0,0.5,0.1,0.8,0.2,1.1   c0.1,0.3,0.3,0.5,0.6,0.7s0.6,0.3,1,0.4c0.4,0.1,0.9,0.1,1.5,0.1h1.9c0.4,0,0.8,0,1.1-0.1c0.3,0,0.6-0.1,0.8-0.2   c0.2-0.1,0.3-0.3,0.4-0.4c0.1-0.2,0.2-0.4,0.2-0.7h1.4v0.2c0,0.5-0.1,0.8-0.3,1.2c-0.2,0.3-0.5,0.5-0.8,0.7   c-0.4,0.2-0.8,0.3-1.3,0.4c-0.5,0.1-1.1,0.1-1.7,0.1h-2.6c-0.4,0-0.9,0-1.3-0.1c-0.5-0.1-0.9-0.2-1.2-0.4c-0.4-0.2-0.7-0.6-0.9-1   s-0.3-1-0.3-1.8v-1.8H159.2z M168.2,39.2c0-0.2,0-0.4-0.1-0.6c-0.1-0.2-0.2-0.4-0.4-0.5c-0.2-0.2-0.5-0.3-0.9-0.4   c-0.4-0.1-0.8-0.1-1.4-0.1h-2c-0.5,0-1,0-1.3,0.1s-0.6,0.2-0.8,0.3c-0.2,0.2-0.4,0.4-0.4,0.7c-0.1,0.3-0.1,0.7-0.2,1.1h7.6v-0.6   H168.2z"></path>	<path class="st0" d="M171.9,36.5h1.3v1.2l0,0c0.1-0.3,0.3-0.5,0.5-0.6c0.2-0.2,0.4-0.3,0.6-0.4c0.2-0.1,0.4-0.2,0.7-0.2   c0.2,0,0.5-0.1,0.7-0.1h1.3c0.6,0,1.2,0.1,1.6,0.2c0.4,0.1,0.8,0.3,1,0.5c0.3,0.2,0.5,0.5,0.6,0.9s0.2,0.8,0.2,1.3v1h-1.3V40   c0-0.5,0-0.9-0.1-1.2s-0.2-0.5-0.4-0.7s-0.5-0.3-0.9-0.3c-0.4-0.1-0.9-0.1-1.5-0.1h-0.8c-0.4,0-0.7,0.1-0.9,0.2   c-0.3,0.1-0.5,0.2-0.7,0.4s-0.3,0.4-0.4,0.6c-0.1,0.2-0.1,0.5-0.1,0.7v5.1h-1.4L171.9,36.5L171.9,36.5z"></path>	<path class="st0" d="M182.6,37.7h-1.8v-1.1h1.8v-1.9h1.4v1.9h5.4v1.1h-5.4v4c0,0.4,0,0.7,0.1,0.9s0.2,0.4,0.3,0.6   c0.2,0.2,0.4,0.3,0.6,0.3c0.3,0.1,0.6,0.1,0.9,0.1h0.4c0.5,0,0.8,0,1.1-0.1s0.5-0.2,0.6-0.3c0.1-0.2,0.2-0.4,0.3-0.6   c0-0.3,0.1-0.6,0.1-1V41h1.1v0.9c0,0.4,0,0.8-0.1,1.1c0,0.4-0.2,0.7-0.4,0.9c-0.2,0.3-0.5,0.5-0.9,0.6s-1,0.2-1.7,0.2h-0.7   c-0.6,0-1.1-0.1-1.6-0.2c-0.4-0.1-0.7-0.3-1-0.6c-0.2-0.2-0.4-0.5-0.5-0.8s-0.1-0.6-0.1-0.9L182.6,37.7L182.6,37.7z"></path>	<path class="st0" d="M191.4,33.2h1.4v1.5h-1.4V33.2z M191.4,36.5h1.4v8h-1.4V36.5z"></path>	<path class="st0" d="M203.8,43.8L203.8,43.8c-0.1,0.2-0.2,0.3-0.3,0.4c-0.1,0.1-0.3,0.2-0.5,0.3s-0.5,0.1-0.8,0.1s-0.8,0-1.3,0   h-3.2c-0.5,0-0.9-0.1-1.3-0.2c-0.3-0.1-0.6-0.3-0.8-0.5s-0.3-0.5-0.4-0.8c-0.1-0.3-0.1-0.6-0.1-1v-0.5c0-0.5,0.1-0.8,0.2-1.1   c0.2-0.3,0.4-0.5,0.7-0.6s0.7-0.2,1.2-0.3c0.5,0,1-0.1,1.6-0.1h2.2c0.4,0,0.8,0,1.1,0s0.6,0.1,0.8,0.1c0.2,0.1,0.4,0.2,0.6,0.3   c0.1,0.1,0.3,0.3,0.4,0.5l0,0v-1.5c0-0.4-0.1-0.6-0.2-0.9c-0.1-0.2-0.3-0.4-0.5-0.5s-0.6-0.2-0.9-0.2c-0.4,0-0.8-0.1-1.3-0.1h-2   c-0.4,0-0.8,0-1,0.1c-0.3,0-0.5,0.1-0.6,0.2c-0.1,0.1-0.2,0.2-0.3,0.3s-0.1,0.3-0.1,0.4v0.3h-1.4v-0.4c0-0.4,0.1-0.7,0.2-0.9   c0.1-0.3,0.3-0.5,0.6-0.6c0.3-0.2,0.6-0.3,1-0.4c0.4-0.1,0.9-0.1,1.6-0.1h2.1c0.6,0,1.2,0,1.7,0.1s1,0.2,1.3,0.4   c0.4,0.2,0.7,0.5,0.9,0.8c0.2,0.4,0.3,0.8,0.3,1.4v5.4h-1.4v-0.4H203.8z M203.8,42.1c0-0.3-0.1-0.5-0.2-0.7   c-0.1-0.2-0.3-0.3-0.6-0.4c-0.3-0.1-0.6-0.1-1-0.2c-0.4,0-0.8,0-1.3,0h-2.1c-0.4,0-0.8,0-1.1,0.1c-0.3,0-0.5,0.1-0.7,0.2   c-0.2,0.1-0.3,0.2-0.4,0.4c-0.1,0.2-0.1,0.4-0.1,0.6v0.3c0,0.2,0,0.4,0.1,0.6c0.1,0.2,0.2,0.3,0.3,0.4c0.2,0.1,0.4,0.2,0.7,0.2   s0.7,0.1,1.1,0.1h1.8c0.6,0,1.1,0,1.6,0c0.4,0,0.8-0.1,1.1-0.2c0.3-0.1,0.5-0.2,0.6-0.4s0.2-0.4,0.2-0.6L203.8,42.1L203.8,42.1z"></path>	<path class="st0" d="M207.7,36.5h1.3v1.2l0,0c0.1-0.3,0.3-0.5,0.5-0.6c0.2-0.2,0.4-0.3,0.6-0.4c0.2-0.1,0.4-0.2,0.7-0.2   c0.2,0,0.5-0.1,0.7-0.1h1.3c0.6,0,1.2,0.1,1.6,0.2c0.4,0.1,0.8,0.3,1,0.5c0.3,0.2,0.5,0.5,0.6,0.9s0.2,0.8,0.2,1.3v1h-1.3V40   c0-0.5,0-0.9-0.1-1.2s-0.2-0.5-0.4-0.7s-0.5-0.3-0.9-0.3c-0.4-0.1-0.9-0.1-1.5-0.1h-0.8c-0.4,0-0.7,0.1-0.9,0.2   c-0.3,0.1-0.5,0.2-0.7,0.4s-0.3,0.4-0.4,0.6c-0.1,0.2-0.1,0.5-0.1,0.7v5.1h-1.4L207.7,36.5L207.7,36.5z"></path>	<path class="st0" d="M218.2,46.5c0.5,0,0.9,0,1.3,0c0.3,0,0.6-0.1,0.9-0.2c0.2-0.1,0.4-0.3,0.6-0.5c0.2-0.2,0.3-0.6,0.5-1h-0.4   l-4.6-8.2h1.5l3.9,7.1l3.5-7.1h1.5l-4.5,9c-0.2,0.4-0.4,0.7-0.6,1c-0.2,0.3-0.4,0.5-0.7,0.6s-0.7,0.2-1.1,0.3   c-0.4,0.1-1,0.1-1.7,0.1L218.2,46.5L218.2,46.5z"></path>	<polygon class="st0" points="146.8,52 157.9,52 157.9,53.2 148.4,53.2 148.4,56.9 157.7,56.9 157.7,58.1 148.4,58.1 148.4,62.1    158.1,62.1 158.1,63.4 146.8,63.4  "></polygon>	<path class="st0" d="M170.1,63.4h-1.3v-1.3l0,0c-0.2,0.5-0.6,0.9-1.1,1.1c-0.5,0.2-1.1,0.3-1.8,0.3h-1.9c-0.6,0-1.2,0-1.7-0.1   s-0.9-0.3-1.3-0.5c-0.4-0.2-0.7-0.6-0.9-1s-0.3-1-0.3-1.7v-1.4c0-0.6,0.1-1.2,0.2-1.6c0.1-0.4,0.4-0.8,0.7-1.1s0.8-0.5,1.3-0.6   s1.2-0.2,2-0.2h2.1c0.8,0,1.4,0.1,1.8,0.3c0.4,0.2,0.7,0.5,0.8,0.9l0,0V52h1.4V63.4z M161.2,60.1c0,0.4,0,0.7,0.1,1   s0.2,0.5,0.4,0.7s0.5,0.3,0.8,0.4c0.3,0.1,0.8,0.1,1.4,0.1h2.2c0.5,0,0.9-0.1,1.3-0.2c0.3-0.1,0.6-0.3,0.8-0.4   c0.2-0.2,0.4-0.4,0.4-0.7c0.1-0.3,0.1-0.6,0.1-1v-1.5c0-0.5-0.1-0.9-0.2-1.2c-0.1-0.3-0.3-0.5-0.6-0.7s-0.6-0.3-0.9-0.3   c-0.4-0.1-0.8-0.1-1.2-0.1H164c-0.5,0-0.9,0-1.2,0.1c-0.4,0.1-0.6,0.2-0.9,0.3c-0.2,0.2-0.4,0.4-0.5,0.7s-0.2,0.7-0.2,1.1   L161.2,60.1L161.2,60.1z"></path>	<path class="st0" d="M181.2,62L181.2,62c-0.2,0.3-0.3,0.6-0.5,0.8s-0.4,0.3-0.7,0.5c-0.3,0.1-0.6,0.2-0.9,0.2   c-0.3,0-0.7,0.1-1.2,0.1h-2c-0.6,0-1.2-0.1-1.6-0.2c-0.4-0.1-0.8-0.3-1-0.6c-0.3-0.3-0.4-0.5-0.6-0.9c-0.1-0.3-0.2-0.7-0.2-1v-5.4   h1.4v5.1c0,0.3,0,0.6,0.1,0.8s0.2,0.4,0.4,0.6c0.2,0.2,0.5,0.3,0.9,0.4c0.4,0.1,0.9,0.1,1.6,0.1h0.3c0.8,0,1.4,0,1.9-0.1   s0.9-0.2,1.2-0.4s0.5-0.4,0.6-0.8c0.1-0.3,0.2-0.7,0.2-1.2v-4.6h1.4v8h-1.3L181.2,62L181.2,62z"></path>	<path class="st0" d="M184.8,58.5c0-0.7,0.1-1.3,0.4-1.7c0.2-0.4,0.5-0.8,0.9-1s0.8-0.4,1.3-0.4c0.5-0.1,1-0.1,1.5-0.1h2.3   c1.3,0,2.2,0.2,2.7,0.7s0.8,1.2,0.8,2v0.2h-1.3V58c0-0.3-0.1-0.6-0.2-0.8c-0.1-0.2-0.3-0.4-0.4-0.5c-0.2-0.1-0.4-0.2-0.7-0.3   c-0.3,0-0.6-0.1-0.9-0.1h-2.5c-0.3,0-0.6,0-0.9,0.1c-0.3,0-0.6,0.1-0.8,0.3c-0.2,0.1-0.4,0.4-0.6,0.7c-0.1,0.3-0.2,0.7-0.2,1.2v1.7   c0,0.5,0.1,0.8,0.2,1.1c0.1,0.3,0.3,0.5,0.6,0.7c0.2,0.2,0.5,0.3,0.9,0.3c0.3,0.1,0.7,0.1,1.1,0.1h2.3c0.3,0,0.6,0,0.9-0.1   c0.3-0.1,0.5-0.1,0.7-0.3c0.2-0.1,0.4-0.3,0.5-0.5s0.2-0.5,0.2-0.8v-0.3h1.3v0.2c0,0.5-0.1,0.9-0.2,1.3c-0.1,0.4-0.3,0.6-0.6,0.9   c-0.3,0.2-0.7,0.4-1.1,0.5c-0.4,0.1-1,0.2-1.6,0.2h-3.1c-0.3,0-0.7,0-1-0.1c-0.4-0.1-0.8-0.2-1.1-0.4s-0.6-0.6-0.9-1   c-0.2-0.4-0.4-1-0.4-1.7L184.8,58.5L184.8,58.5z"></path>	<path class="st0" d="M205.2,62.6L205.2,62.6c-0.1,0.2-0.2,0.3-0.3,0.4c-0.1,0.1-0.3,0.2-0.5,0.3s-0.5,0.1-0.8,0.1s-0.8,0-1.3,0   h-3.2c-0.5,0-0.9-0.1-1.3-0.2c-0.3-0.1-0.6-0.3-0.8-0.5s-0.3-0.5-0.4-0.8c-0.1-0.3-0.1-0.6-0.1-1v-0.5c0-0.5,0.1-0.8,0.2-1.1   c0.2-0.3,0.4-0.5,0.7-0.6s0.7-0.2,1.2-0.3c0.5,0,1-0.1,1.6-0.1h2.2c0.4,0,0.8,0,1.1,0s0.6,0.1,0.8,0.1c0.2,0.1,0.4,0.2,0.6,0.3   c0.1,0.1,0.3,0.3,0.4,0.5l0,0V58c0-0.4-0.1-0.6-0.2-0.9c-0.1-0.2-0.3-0.4-0.5-0.5s-0.6-0.2-0.9-0.2c-0.4,0-0.8-0.1-1.3-0.1h-2   c-0.4,0-0.8,0-1,0.1c-0.3,0-0.5,0.1-0.6,0.2c-0.1,0.1-0.2,0.2-0.3,0.3s-0.1,0.3-0.1,0.4v0.3h-1.4v-0.4c0-0.4,0.1-0.7,0.2-0.9   c0.1-0.3,0.3-0.5,0.6-0.6c0.3-0.2,0.6-0.3,1-0.4c0.4-0.1,0.9-0.1,1.6-0.1h2.1c0.6,0,1.2,0,1.7,0.1s1,0.2,1.3,0.4   c0.4,0.2,0.7,0.5,0.9,0.8c0.2,0.4,0.3,0.8,0.3,1.4v5.4h-1.4v-0.7H205.2z M205.2,60.9c0-0.3-0.1-0.5-0.2-0.7   c-0.1-0.2-0.3-0.3-0.6-0.4c-0.3-0.1-0.6-0.1-1-0.2c-0.4,0-0.8,0-1.3,0h-2.1c-0.4,0-0.8,0-1.1,0.1c-0.3,0-0.5,0.1-0.7,0.2   c-0.2,0.1-0.3,0.2-0.4,0.4c-0.1,0.2-0.1,0.4-0.1,0.6v0.3c0,0.2,0,0.4,0.1,0.6c0.1,0.2,0.2,0.3,0.3,0.4c0.2,0.1,0.4,0.2,0.7,0.2   s0.7,0.1,1.1,0.1h1.8c0.6,0,1.1,0,1.6,0c0.4,0,0.8-0.1,1.1-0.2c0.3-0.1,0.5-0.2,0.6-0.4s0.2-0.4,0.2-0.6L205.2,60.9L205.2,60.9z"></path>	<path class="st0" d="M209.6,56.4h-1.8v-1.1h1.8v-1.9h1.4v1.9h5.4v1.1h-5.4v4c0,0.4,0,0.7,0.1,0.9s0.2,0.4,0.3,0.6   c0.2,0.2,0.4,0.3,0.6,0.3c0.3,0.1,0.6,0.1,0.9,0.1h0.4c0.5,0,0.8,0,1.1-0.1s0.5-0.2,0.6-0.3c0.1-0.2,0.2-0.4,0.3-0.6   c0-0.3,0.1-0.6,0.1-1v-0.6h1.1v0.9c0,0.4,0,0.8-0.1,1.1c0,0.4-0.2,0.7-0.4,0.9c-0.2,0.3-0.5,0.5-0.9,0.6s-1,0.2-1.7,0.2h-0.7   c-0.6,0-1.2-0.1-1.6-0.2c-0.4-0.1-0.7-0.3-1-0.6c-0.2-0.2-0.4-0.5-0.5-0.8s-0.1-0.6-0.1-0.9L209.6,56.4L209.6,56.4z"></path>	<path class="st0" d="M218.4,52h1.4v1.5h-1.4V52z M218.4,55.3h1.4v8h-1.4V55.3z"></path>	<path class="st0" d="M222.2,58.5c0-0.7,0.1-1.2,0.3-1.6c0.2-0.4,0.5-0.8,0.9-1s0.9-0.4,1.4-0.5s1.1-0.1,1.8-0.1h1.9   c0.6,0,1.2,0,1.8,0.1c0.5,0.1,1,0.3,1.4,0.5s0.7,0.6,0.9,1s0.3,1,0.3,1.6v1.8c0,0.7-0.1,1.2-0.3,1.6c-0.2,0.4-0.5,0.8-0.9,1   s-0.9,0.4-1.4,0.5s-1.1,0.1-1.8,0.1h-1.9c-0.6,0-1.2,0-1.8-0.1c-0.5-0.1-1-0.3-1.4-0.5s-0.7-0.6-0.9-1s-0.3-1-0.3-1.6V58.5z    M231.8,58.6c0-0.5-0.1-0.9-0.2-1.1c-0.1-0.3-0.3-0.5-0.6-0.7c-0.2-0.2-0.5-0.3-0.9-0.3c-0.3-0.1-0.7-0.1-1.1-0.1h-2.8   c-0.4,0-0.8,0-1.1,0.1s-0.6,0.2-0.8,0.3c-0.2,0.2-0.4,0.4-0.6,0.7c-0.1,0.3-0.2,0.7-0.2,1.1v1.6c0,0.5,0.1,0.9,0.2,1.1   c0.1,0.3,0.3,0.5,0.6,0.7c0.2,0.2,0.5,0.3,0.8,0.3s0.7,0.1,1.1,0.1h2.8c0.4,0,0.7,0,1.1-0.1c0.3-0.1,0.6-0.2,0.9-0.3   c0.2-0.2,0.4-0.4,0.6-0.7c0.1-0.3,0.2-0.7,0.2-1.1V58.6z"></path>	<path class="st0" d="M235.4,55.3h1.3v1.4l0,0c0.1-0.3,0.3-0.6,0.5-0.8s0.4-0.3,0.7-0.5c0.3-0.1,0.6-0.2,0.9-0.2   c0.3,0,0.7-0.1,1.2-0.1h2c0.6,0,1.2,0.1,1.6,0.2c0.4,0.1,0.8,0.3,1,0.6c0.3,0.3,0.4,0.5,0.6,0.9c0.1,0.3,0.2,0.7,0.2,1v5.4H244   v-5.1c0-0.3,0-0.6-0.1-0.8s-0.2-0.4-0.4-0.6c-0.2-0.2-0.5-0.3-0.9-0.4c-0.4-0.1-0.9-0.1-1.6-0.1h-0.3c-0.8,0-1.4,0-1.9,0.1   s-0.9,0.2-1.2,0.4s-0.5,0.4-0.6,0.8c-0.1,0.3-0.2,0.7-0.2,1.2v4.6h-1.4L235.4,55.3L235.4,55.3z"></path>	<path class="st0" d="M135.1,72.3c-0.3,0-0.5-0.2-0.5-0.5V8.1c0-0.3,0.2-0.5,0.5-0.5s0.5,0.2,0.5,0.5v63.7   C135.6,72.1,135.4,72.3,135.1,72.3L135.1,72.3z"></path>	<path class="st0" d="M6.7,40.7c1.3,2.9,3.2,5.4,5.7,7.4c2.1,1.7,4.2,2.9,6.6,3.6c2.3,0.7,5.6,1.1,9.9,1.1l21.7-0.1l0.1-6.1H28.9   c-2.9,0-5.2-0.2-6.9-0.7s-3.2-1.2-4.5-2.3c-1.9-1.5-3.4-3.4-4.3-5.6c-0.7-1.5-1.1-3.2-1.3-5h-7C5.1,35.9,5.7,38.4,6.7,40.7   L6.7,40.7z"></path>	<g>		<g>			<path id="SVGID_00000008852670682107994590000016527180402174500268_" class="st0" d="M28.6,8.1c-3.1,0-5.5,0.2-7.1,0.4     C19.9,8.8,18.4,9.3,17,10c-1.6,0.8-3,1.8-4.3,2.9s-2.5,2.4-3.5,3.8c-1.5,2-2.6,4.2-3.3,6.6c-0.7,2.4-1.1,5-1.1,7.7     c0,0.7,0,1.4,0.1,2.1h7c-0.1-0.9-0.1-1.8-0.1-2.7c0-2.7,0.5-5.2,1.5-7.5s2.4-4.2,4.4-5.8c1.2-1,2.7-1.8,4.5-2.2     c1.8-0.5,4-0.7,6.6-0.7h7.8c0.3,0,6.6-6,6.6-6L28.6,8.1L28.6,8.1z"></path>		</g>		<g>			<defs>				<path id="SVGID_1_" d="M28.6,8.1c-3.1,0-5.5,0.2-7.1,0.4C19.9,8.8,18.4,9.3,17,10c-1.6,0.8-3,1.8-4.3,2.9s-2.5,2.4-3.5,3.8      c-1.5,2-2.6,4.2-3.3,6.6c-0.7,2.4-1.1,5-1.1,7.7c0,0.7,0,1.4,0.1,2.1h7c-0.1-0.9-0.1-1.8-0.1-2.7c0-2.7,0.5-5.2,1.5-7.5      s2.4-4.2,4.4-5.8c1.2-1,2.7-1.8,4.5-2.2c1.8-0.5,4-0.7,6.6-0.7h7.8c0.3,0,6.6-6,6.6-6L28.6,8.1L28.6,8.1z"></path>			</defs>			<clipPath id="SVGID_00000067208402416738495850000005157112584268780470_">				<use xlink:href="#SVGID_1_" style="overflow:visible;"></use>			</clipPath>							<rect x="4.8" y="8.1" style="clip-path:url(#SVGID_00000067208402416738495850000005157112584268780470_);fill:#FFFFFF;" width="38.2" height="25"></rect>		</g>	</g>	<g>		<g>			<path id="SVGID_00000025422895936269171160000010967132275212819349_" class="st0" d="M49.1,8.1c0,0-6.7,6-6.5,6h17.9v19H67v-19     h19.1l7-6C93.1,8.1,49.1,8.1,49.1,8.1z"></path>		</g>		<g>			<defs>				<path id="SVGID_00000067215256714255634430000014430343105811418297_" d="M49.1,8.1c0,0-6.7,6-6.5,6h17.9v19H67v-19h19.1l7-6      C93.1,8.1,49.1,8.1,49.1,8.1z"></path>			</defs>			<clipPath id="SVGID_00000124144490665993658200000006100881432227324862_">				<use xlink:href="#SVGID_00000067215256714255634430000014430343105811418297_" style="overflow:visible;"></use>			</clipPath>							<rect x="42.3" y="8.1" style="clip-path:url(#SVGID_00000124144490665993658200000006100881432227324862_);fill:#FFFFFF;" width="50.8" height="25"></rect>		</g>	</g>	<rect x="60.5" y="33.2" class="st0" width="6.6" height="19.6"></rect>	<g>		<g>							<rect id="SVGID_00000125564157228949821000000007724517711066889385_" x="76.9" y="18.5" class="st0" width="6.6" height="14.7"></rect>		</g>		<g>			<defs>				<rect id="SVGID_00000150813746981198049100000016456109245351802775_" x="76.9" y="18.5" width="6.6" height="14.7"></rect>			</defs>			<clipPath id="SVGID_00000022553994786817345460000016207344092385836987_">				<use xlink:href="#SVGID_00000150813746981198049100000016456109245351802775_" style="overflow:visible;"></use>			</clipPath>							<rect x="76.9" y="18.5" style="clip-path:url(#SVGID_00000022553994786817345460000016207344092385836987_);fill:#FFFFFF;" width="6.6" height="14.7"></rect>		</g>	</g>	<path class="st0" d="M107.9,33.2v7.7c0,2.5-0.9,4.3-2.6,5.3c-1.8,1-17.4,1-19.1,0s-2.6-2.8-2.6-5.3v-7.7h-6.6v9.7   c0,3.6,1.6,6.3,4.7,8.1s7.8,1.9,14,1.9c4.1,0,11.4-0.1,11.4-0.1l7.3-6.1V33.2C114.5,33.2,107.9,33.2,107.9,33.2z"></path>	<g>		<g>			<polygon id="SVGID_00000147210339756259457340000003949431342220753840_" class="st0" points="107.9,14.2 107.9,33.2 114.4,33.2      114.4,9 114.4,8.2    "></polygon>		</g>		<g>			<defs>				<polygon id="SVGID_00000005953334870951064770000000677144806512678829_" points="107.9,14.2 107.9,33.2 114.4,33.2 114.4,9       114.4,8.2     "></polygon>			</defs>			<clipPath id="SVGID_00000017484728067990533970000011506087851268707477_">				<use xlink:href="#SVGID_00000005953334870951064770000000677144806512678829_" style="overflow:visible;"></use>			</clipPath>							<rect x="107.9" y="8.2" style="clip-path:url(#SVGID_00000017484728067990533970000011506087851268707477_);fill:#FFFFFF;" width="6.5" height="25"></rect>		</g>	</g></g></svg>